<svg width="338" height="350" viewBox="0 0 338 350" fill="none" xmlns="http://www.w3.org/2000/svg">
<path d="M-68 124.909V96.7029C-68 89.0829 -61.7987 82.8817 -54.1788 82.8817C-49.2971 82.8817 -44.7096 80.9829 -41.259 77.5384C-37.8083 74.0816 -35.9064 69.491 -35.9064 64.6124V14.9465C-35.9064 7.21199 -29.6154 0.920898 -21.8808 0.920898H-4.96518C2.76935 0.920898 9.06046 7.21509 9.06046 14.9465V44.0169C9.06046 62.0507 23.4423 76.9623 41.1168 77.2596C49.9045 77.3959 58.2555 74.0847 64.5373 67.9051C70.8222 61.7224 74.2821 53.4644 74.2821 44.6519V14.9465C74.2821 7.21199 80.5763 0.920898 88.3109 0.920898H105.223C112.958 0.920898 119.252 7.21509 119.252 14.9465V32.8689C119.252 36.1553 116.588 38.8161 113.305 38.8161C110.018 38.8161 107.358 36.1553 107.358 32.8689V14.9465C107.358 13.7726 106.4 12.8154 105.223 12.8154H88.3109C87.1338 12.8154 86.1767 13.7726 86.1767 14.9465V44.6519C86.1767 56.6796 81.4529 67.9484 72.879 76.383C64.305 84.8176 52.9556 89.3276 40.9186 89.1542C16.7919 88.7453 -2.83408 68.4967 -2.83408 44.0169V14.9465C-2.83408 13.7726 -3.79123 12.8154 -4.96518 12.8154H-21.8808C-23.0548 12.8154 -24.0119 13.7726 -24.0119 14.9465V64.6124C-24.0119 72.6629 -27.1466 80.2395 -32.8492 85.9482C-38.5517 91.6415 -46.1252 94.7762 -54.1788 94.7762C-55.2413 94.7762 -56.1055 95.6404 -56.1055 96.7029V121.276L41.6744 168.188L139.448 121.279V96.7029C139.448 96.0462 139.141 95.6001 138.872 95.3306C138.664 95.1231 138.215 94.7762 137.521 94.7762C120.888 94.7762 107.358 81.2462 107.358 64.6124V56.6579C107.358 53.3745 110.018 50.7107 113.305 50.7107C116.588 50.7107 119.252 53.3745 119.252 56.6579V64.6124C119.252 74.6856 127.448 82.8817 137.521 82.8817C141.226 82.8817 144.701 84.322 147.294 86.9301C149.905 89.5414 151.343 93.0137 151.343 96.7029V124.816C151.346 124.949 151.346 125.082 151.343 125.216V224.036L181.928 242.367C186.236 239.896 191.168 238.564 196.17 238.564H231.655V135.825H196.17C180.407 135.825 167.583 123.001 167.583 107.238C167.583 91.4742 180.407 78.6504 196.17 78.6504H202.399V72.1549C202.399 59.2846 212.872 48.815 225.742 48.815H231.655V37.159C231.655 30.3815 237.169 24.8679 243.946 24.8679H261.636C268.414 24.8679 273.928 30.3815 273.928 37.159V48.815H279.841C292.711 48.815 303.184 59.2846 303.184 72.1549V78.6504H309.413C312.024 78.6504 314.611 79.0035 317.104 79.6974C320.267 80.5802 322.119 83.8605 321.236 87.0262C320.353 90.1887 317.076 92.0349 313.907 91.1552C312.455 90.7494 310.943 90.545 309.413 90.545H196.17C186.964 90.545 179.477 98.0317 179.477 107.238C179.477 116.44 186.964 123.927 196.17 123.927H309.413C318.619 123.927 326.105 116.44 326.105 107.238C326.105 106.293 326.025 105.342 325.87 104.419C325.322 101.179 327.502 98.1091 330.739 97.5609C333.976 97.0095 337.049 99.1933 337.597 102.433C337.864 104.013 338 105.63 338 107.238C338 123.001 325.176 135.825 309.413 135.825H273.928V238.564H309.413C325.176 238.564 338 251.388 338 267.151C338 274.777 335.029 281.957 329.624 287.372C324.219 292.767 317.039 295.738 309.413 295.738H303.181V302.23C303.181 315.104 292.711 325.577 279.844 325.577H273.928V337.233C273.928 344.01 268.414 349.524 261.636 349.524H243.946C237.169 349.524 231.655 344.01 231.655 337.233V325.577H231.42C230.19 327.19 228.837 328.724 227.359 330.164C219.371 337.967 209.009 341.938 198.45 341.938H-15.9645C-28.4848 341.938 -38.6725 331.75 -38.6725 319.227V284.001H-41.8475C-56.2697 284.001 -68 272.268 -68 257.849V125.113C-68 125.045 -68 124.977 -68 124.909ZM262.033 37.159C262.033 36.9421 261.856 36.7625 261.636 36.7625H243.946C243.727 36.7625 243.55 36.9421 243.55 37.159V48.815H262.033V37.159ZM291.289 78.6504V72.1549C291.289 65.8421 286.153 60.7095 279.841 60.7095H268.104H267.98H267.859H237.727H237.603H237.479H225.742C219.429 60.7095 214.294 65.8421 214.294 72.1549V78.6504H291.289ZM88.5927 210.605C85.9351 210.605 83.5438 212.284 82.6362 214.781C75.7318 233.831 57.478 246.63 37.2202 246.63C16.5286 246.63 -1.85217 233.468 -8.51495 213.879C-9.18094 211.922 -11.0209 210.605 -13.09 210.605H-16.7854C-22.2959 210.605 -26.778 215.088 -26.778 220.598V295.521H55.5606L75.0689 267.569C76.946 264.877 80.6569 264.217 83.3486 266.098C86.0404 267.975 86.7001 271.683 84.823 274.377L70.0664 295.521H84.3367L121.073 242.872L111.01 236.838L98.4305 254.869C97.272 256.526 95.4259 257.415 93.5457 257.415C92.3717 257.415 91.1854 257.068 90.1508 256.344C87.4559 254.463 86.7962 250.756 88.6733 248.064L101.333 229.919C97.969 226.127 96.0144 221.165 96.0144 215.986V210.605H88.5927ZM112.701 295.521L141.074 254.86L131.302 249.002L98.8425 295.521H112.701ZM141.48 295.521L161.366 267.024L151.302 260.993L127.207 295.524H141.48V295.521ZM196.56 265.004C196.257 265.556 195.91 266.088 195.523 266.593C191.561 271.748 185.558 274.508 179.447 274.508C176.841 274.508 174.215 274.006 171.718 272.971L155.983 295.521H227.52C226.058 287.161 221.009 279.659 213.619 275.232L196.56 265.004ZM107.909 211.875V215.989C107.909 219.114 109.557 222.054 112.215 223.692C112.32 223.754 112.425 223.816 112.527 223.885L132.494 235.85C132.596 235.909 132.699 235.971 132.801 236.036L152.591 247.897C152.628 247.918 152.668 247.943 152.706 247.968L175.156 261.424C178.802 263.61 183.501 262.715 186.094 259.345C186.125 259.305 186.221 259.178 186.181 258.97C186.146 258.788 186.038 258.704 185.982 258.667L179.171 254.584C179.093 254.541 179.013 254.491 178.935 254.442L108.175 212.027C108.086 211.974 107.999 211.925 107.909 211.875ZM262.033 135.825H243.55V238.564H262.033V135.825ZM291.286 302.234V295.738H257.687C254.404 295.738 251.74 293.077 251.74 289.791C251.74 286.507 254.404 283.843 257.687 283.843H309.413C313.867 283.843 318.061 282.109 321.214 278.962C324.368 275.799 326.105 271.605 326.105 267.151C326.105 257.948 318.619 250.458 309.413 250.458H196.17C195.928 250.458 195.69 250.464 195.451 250.474L219.733 265.029C232.142 272.466 239.848 286.071 239.848 300.539C239.848 304.492 239.291 308.317 238.253 311.938C238.241 311.985 238.225 312.031 238.213 312.078C238.204 312.108 238.194 312.139 238.185 312.17C238.039 312.678 237.882 313.18 237.714 313.682H279.844C286.153 313.682 291.286 308.546 291.286 302.234ZM243.55 337.233C243.55 337.449 243.73 337.629 243.946 337.629H261.636C261.853 337.629 262.033 337.449 262.033 337.233V325.577H243.55V337.233ZM-26.778 319.227C-26.778 325.192 -21.9273 330.043 -15.9614 330.043C121.222 330.043 198.605 330.049 199.237 330.034C212.791 329.678 224.097 320.134 227.145 307.416H144.729C144.677 307.419 144.627 307.419 144.574 307.419C144.522 307.419 144.469 307.419 144.417 307.416H115.953C115.901 307.419 115.851 307.419 115.798 307.419C115.746 307.419 115.693 307.419 115.64 307.416H87.5891C87.5365 307.419 87.4838 307.419 87.4343 307.419C87.3816 307.419 87.3289 307.419 87.2763 307.416H58.813C58.7604 307.419 58.7108 307.419 58.6582 307.419C58.6055 307.419 58.5529 307.419 58.5002 307.416H-26.778V319.227ZM-41.8475 272.107H-38.6725V220.598C-38.6725 208.53 -28.8534 198.711 -16.7854 198.711H-13.09C-5.92542 198.711 0.43692 203.267 2.74768 210.048C7.76877 224.814 21.6241 234.732 37.2202 234.732C52.4941 234.732 66.2502 225.086 71.4572 210.729C74.0622 203.54 80.948 198.711 88.5958 198.711C101.853 199.052 106.905 197.41 114.29 201.827L139.451 216.906V134.471L44.2484 180.147C43.4338 180.538 42.5541 180.733 41.6744 180.733C40.7947 180.733 39.915 180.538 39.1035 180.147L-56.1024 134.468V257.849C-56.1055 265.711 -49.7091 272.107 -41.8475 272.107Z" fill="white" fill-opacity="0.21"/>
<path d="M47.8757 105.708H51.8715C55.158 105.708 57.8188 108.368 57.8188 111.655C57.8188 114.938 55.158 117.602 51.8715 117.602H50.6139V138.173H51.3387C54.6252 138.173 57.286 140.834 57.286 144.12C57.286 147.407 54.6252 150.067 51.3387 150.067H37.9945C34.7081 150.067 32.0473 147.407 32.0473 144.12C32.0473 140.834 34.7081 138.173 37.9945 138.173H38.7194V114.864C38.7194 109.815 42.8267 105.708 47.8757 105.708Z" fill="white" fill-opacity="0.21"/>
</svg>
