<svg width="85" height="61" viewBox="0 0 85 61" fill="none" xmlns="http://www.w3.org/2000/svg">
<circle cx="62.985" cy="8.57506" r="8.57506" fill="black"/>
<circle cx="73.3283" cy="27.4936" r="11.6716" fill="black"/>
<circle cx="51.3133" cy="27.4936" r="11.6716" fill="black"/>
<ellipse cx="74.9957" cy="32.2575" rx="8.57506" ry="11.6716" fill="black"/>
<ellipse cx="49.6459" cy="32.2575" rx="8.57506" ry="11.6716" fill="black"/>
<path d="M49.3509 35.6637C46.2223 26.4425 53.0787 16.8759 62.8162 16.8759V16.8759C72.6493 16.8759 79.5143 26.6173 76.2071 35.8776L70.7273 51.2209C69.5125 54.6223 66.2906 56.8928 62.6788 56.8928V56.8928C59.017 56.8928 55.7621 54.56 54.5856 51.0924L49.3509 35.6637Z" fill="black"/>
<rect x="52.9807" y="14.8355" width="20.0085" height="11.4334" rx="5.71671" fill="black"/>
<circle cx="22.0151" cy="8.57506" r="8.57506" fill="black"/>
<circle cx="33.6868" cy="27.4936" r="11.6716" fill="black"/>
<circle cx="11.6716" cy="27.4936" r="11.6716" fill="black"/>
<ellipse cx="35.3539" cy="32.2575" rx="8.57506" ry="11.6716" fill="black"/>
<ellipse cx="10.0043" cy="32.2575" rx="8.57506" ry="11.6716" fill="black"/>
<path d="M8.38104 35.6637C5.25243 26.4425 12.1089 16.8759 21.8464 16.8759V16.8759C31.6794 16.8759 38.5444 26.6173 35.2372 35.8776L29.7575 51.2209C28.5427 54.6223 25.3208 56.8928 21.709 56.8928V56.8928C18.0472 56.8928 14.7923 54.56 13.6158 51.0924L8.38104 35.6637Z" fill="black"/>
<rect x="12.011" y="14.8355" width="20.0085" height="11.4334" rx="5.71671" fill="black"/>
<circle cx="42.9762" cy="11.9097" r="8.57506" fill="black"/>
<circle cx="54.648" cy="30.8283" r="11.6716" fill="black"/>
<circle cx="31.3048" cy="30.8283" r="11.6716" fill="black"/>
<ellipse cx="56.3152" cy="35.5922" rx="8.57506" ry="11.6716" fill="black"/>
<ellipse cx="29.6373" cy="35.5922" rx="8.57506" ry="11.6716" fill="black"/>
<path d="M29.3423 38.9984C26.2137 29.7773 33.0702 20.2106 42.8077 20.2106V20.2106C52.6407 20.2106 59.5057 29.9521 56.1985 39.2123L50.7188 54.5556C49.504 57.957 46.2821 60.2275 42.6703 60.2275V60.2275C39.0085 60.2275 35.7536 57.8947 34.5771 54.4271L29.3423 38.9984Z" fill="black"/>
<rect x="32.9722" y="17.7275" width="20.0085" height="11.4334" rx="5.71671" fill="black"/>
<circle cx="62.8645" cy="8.75321" r="7.96874" fill="white"/>
<circle cx="73.7108" cy="27.5683" r="10.8463" fill="white"/>
<circle cx="52.0181" cy="27.5683" r="10.8463" fill="white"/>
<ellipse cx="75.2603" cy="31.9953" rx="7.96874" ry="10.8463" fill="white"/>
<ellipse cx="50.4687" cy="31.9953" rx="7.96874" ry="10.8463" fill="white"/>
<path d="M50.1945 36.3949C47.2871 27.8257 53.6588 18.9355 62.7078 18.9355V18.9355C71.8456 18.9355 78.2252 27.9882 75.1518 36.5936L70.0595 50.8521C68.9306 54.013 65.9365 56.1229 62.5801 56.1229V56.1229C59.1772 56.1229 56.1525 53.9551 55.0591 50.7326L50.1945 36.3949Z" fill="white"/>
<rect x="53.5676" y="15.3938" width="18.5937" height="10.625" rx="5.31249" fill="white"/>
<circle cx="22.1355" cy="8.75316" r="7.96874" fill="white"/>
<circle cx="32.9818" cy="27.5683" r="10.8463" fill="white"/>
<circle cx="11.2891" cy="27.5683" r="10.8463" fill="white"/>
<ellipse cx="34.5314" cy="31.9953" rx="7.96874" ry="10.8463" fill="white"/>
<ellipse cx="9.73961" cy="31.9953" rx="7.96874" ry="10.8463" fill="white"/>
<path d="M9.46554 36.3949C6.55814 27.8257 12.9298 18.9355 21.9788 18.9355V18.9355C31.1166 18.9355 37.4962 27.9882 34.4228 36.5936L29.3305 50.852C28.2016 54.0129 25.2075 56.1229 21.8511 56.1229V56.1229C18.4482 56.1229 15.4235 53.9551 14.3301 50.7326L9.46554 36.3949Z" fill="white"/>
<rect x="12.8386" y="15.3938" width="18.5937" height="10.625" rx="5.31249" fill="white"/>
<circle cx="52.7932" cy="31.329" r="12.7278" fill="black"/>
<circle cx="33.0926" cy="31.329" r="12.7278" fill="black"/>
<ellipse cx="55.0541" cy="34.7532" rx="9.35107" ry="12.7278" fill="black"/>
<ellipse cx="31.2744" cy="34.7532" rx="9.35107" ry="12.7278" fill="black"/>
<rect x="32.2546" y="17.9281" width="21.8192" height="12.4681" rx="6.23405" fill="black"/>
<circle cx="42.9428" cy="11.8521" r="7.96874" fill="white"/>
<circle cx="53.7892" cy="30.6672" r="10.8463" fill="white"/>
<circle cx="32.0965" cy="30.6672" r="10.8463" fill="white"/>
<ellipse cx="55.3386" cy="35.0943" rx="7.96874" ry="10.8463" fill="white"/>
<ellipse cx="30.547" cy="35.0943" rx="7.96874" ry="10.8463" fill="white"/>
<path d="M30.2728 39.4938C27.3655 30.9246 33.7371 22.0344 42.7861 22.0344V22.0344C51.9239 22.0344 58.3035 31.0871 55.2301 39.6925L50.1378 53.951C49.0089 57.1119 46.0148 59.2219 42.6584 59.2219V59.2219C39.2555 59.2219 36.2308 57.054 35.1374 53.8315L30.2728 39.4938Z" fill="white"/>
<rect x="33.646" y="18.4927" width="18.5937" height="10.625" rx="5.31249" fill="white"/>
</svg>
