<svg width="329" height="115" viewBox="0 0 329 115" fill="none" xmlns="http://www.w3.org/2000/svg">
<path d="M17.717 49.0156C17.717 46.0026 18.2926 43.1758 19.4436 40.5352C20.5946 37.8945 22.1519 35.5924 24.1155 33.6289C26.1129 31.6315 28.4319 30.0573 31.0725 28.9062C33.7131 27.7552 36.54 27.1797 39.553 27.1797H72.967V41.7539H39.553C38.5374 41.7539 37.5894 41.9401 36.7092 42.3125C35.829 42.6849 35.0504 43.2096 34.3733 43.8867C33.7301 44.5299 33.2222 45.2917 32.8499 46.1719C32.4775 47.0521 32.2913 48 32.2913 49.0156C32.2913 50.0312 32.4775 50.9961 32.8499 51.9102C33.2222 52.7904 33.7301 53.569 34.3733 54.2461C35.0504 54.8893 35.829 55.3971 36.7092 55.7695C37.5894 56.1419 38.5374 56.3281 39.553 56.3281H54.1272C57.1402 56.3281 59.967 56.9036 62.6077 58.0547C65.2821 59.1719 67.6012 60.7292 69.5647 62.7266C71.5621 64.6901 73.1194 67.0091 74.2366 69.6836C75.3876 72.3242 75.9631 75.151 75.9631 78.1641C75.9631 81.1771 75.3876 84.0039 74.2366 86.6445C73.1194 89.2852 71.5621 91.6042 69.5647 93.6016C67.6012 95.5651 65.2821 97.1224 62.6077 98.2734C59.967 99.4245 57.1402 100 54.1272 100H21.7795V85.4258H54.1272C55.1428 85.4258 56.0907 85.2396 56.9709 84.8672C57.8512 84.4948 58.6129 83.987 59.2561 83.3438C59.9332 82.6667 60.4579 81.888 60.8303 81.0078C61.2027 80.1276 61.3889 79.1797 61.3889 78.1641C61.3889 77.1484 61.2027 76.2005 60.8303 75.3203C60.4579 74.4401 59.9332 73.6784 59.2561 73.0352C58.6129 72.3581 57.8512 71.8333 56.9709 71.4609C56.0907 71.0885 55.1428 70.9023 54.1272 70.9023H39.553C36.54 70.9023 33.7131 70.3268 31.0725 69.1758C28.4319 68.0247 26.1129 66.4674 24.1155 64.5039C22.1519 62.5065 20.5946 60.1875 19.4436 57.5469C18.2926 54.8724 17.717 52.0286 17.717 49.0156ZM116.675 100H102.152V41.7539H80.2653V27.1797H138.511V41.7539H116.675V100ZM188.415 70.9023V56.3281C188.415 54.3307 188.026 52.4518 187.247 50.6914C186.502 48.8971 185.47 47.3398 184.15 46.0195C182.829 44.6992 181.272 43.6667 179.478 42.9219C177.717 42.1432 175.838 41.7539 173.841 41.7539C171.844 41.7539 169.948 42.1432 168.153 42.9219C166.393 43.6667 164.853 44.6992 163.532 46.0195C162.212 47.3398 161.163 48.8971 160.384 50.6914C159.639 52.4518 159.267 54.3307 159.267 56.3281V70.9023H188.415ZM202.989 100H188.415V85.4258H159.267V100H144.743V56.3281C144.743 52.2995 145.505 48.5247 147.028 45.0039C148.552 41.4492 150.617 38.3516 153.224 35.7109C155.864 33.0703 158.945 30.9883 162.466 29.4648C166.021 27.9414 169.812 27.1797 173.841 27.1797C177.87 27.1797 181.644 27.9414 185.165 29.4648C188.72 30.9883 191.818 33.0703 194.458 35.7109C197.099 38.3516 199.181 41.4492 200.704 45.0039C202.228 48.5247 202.989 52.2995 202.989 56.3281V100ZM231.768 100H217.194V27.1797H268.178V41.7539H231.768V56.3281H253.604V70.9023H231.768V100ZM291.828 100H277.254V27.1797H328.238V41.7539H291.828V56.3281H313.664V70.9023H291.828V100Z" fill="#076C72" fill-opacity="0.39"/>
<path d="M2.71704 39.0156C2.71704 36.0026 3.29256 33.1758 4.4436 30.5352C5.59465 27.8945 7.15194 25.5924 9.11548 23.6289C11.1129 21.6315 13.4319 20.0573 16.0725 18.9062C18.7131 17.7552 21.54 17.1797 24.553 17.1797H57.967V31.7539H24.553C23.5374 31.7539 22.5894 31.9401 21.7092 32.3125C20.829 32.6849 20.0504 33.2096 19.3733 33.8867C18.7301 34.5299 18.2222 35.2917 17.8499 36.1719C17.4775 37.0521 17.2913 38 17.2913 39.0156C17.2913 40.0312 17.4775 40.9961 17.8499 41.9102C18.2222 42.7904 18.7301 43.569 19.3733 44.2461C20.0504 44.8893 20.829 45.3971 21.7092 45.7695C22.5894 46.1419 23.5374 46.3281 24.553 46.3281H39.1272C42.1402 46.3281 44.967 46.9036 47.6077 48.0547C50.2821 49.1719 52.6012 50.7292 54.5647 52.7266C56.5621 54.6901 58.1194 57.0091 59.2366 59.6836C60.3876 62.3242 60.9631 65.151 60.9631 68.1641C60.9631 71.1771 60.3876 74.0039 59.2366 76.6445C58.1194 79.2852 56.5621 81.6042 54.5647 83.6016C52.6012 85.5651 50.2821 87.1224 47.6077 88.2734C44.967 89.4245 42.1402 90 39.1272 90H6.77954V75.4258H39.1272C40.1428 75.4258 41.0907 75.2396 41.9709 74.8672C42.8512 74.4948 43.6129 73.987 44.2561 73.3438C44.9332 72.6667 45.4579 71.888 45.8303 71.0078C46.2027 70.1276 46.3889 69.1797 46.3889 68.1641C46.3889 67.1484 46.2027 66.2005 45.8303 65.3203C45.4579 64.4401 44.9332 63.6784 44.2561 63.0352C43.6129 62.3581 42.8512 61.8333 41.9709 61.4609C41.0907 61.0885 40.1428 60.9023 39.1272 60.9023H24.553C21.54 60.9023 18.7131 60.3268 16.0725 59.1758C13.4319 58.0247 11.1129 56.4674 9.11548 54.5039C7.15194 52.5065 5.59465 50.1875 4.4436 47.5469C3.29256 44.8724 2.71704 42.0286 2.71704 39.0156ZM101.675 90H87.152V31.7539H65.2653V17.1797H123.511V31.7539H101.675V90ZM173.415 60.9023V46.3281C173.415 44.3307 173.026 42.4518 172.247 40.6914C171.502 38.8971 170.47 37.3398 169.15 36.0195C167.829 34.6992 166.272 33.6667 164.478 32.9219C162.717 32.1432 160.838 31.7539 158.841 31.7539C156.844 31.7539 154.948 32.1432 153.153 32.9219C151.393 33.6667 149.853 34.6992 148.532 36.0195C147.212 37.3398 146.163 38.8971 145.384 40.6914C144.639 42.4518 144.267 44.3307 144.267 46.3281V60.9023H173.415ZM187.989 90H173.415V75.4258H144.267V90H129.743V46.3281C129.743 42.2995 130.505 38.5247 132.028 35.0039C133.552 31.4492 135.617 28.3516 138.224 25.7109C140.864 23.0703 143.945 20.9883 147.466 19.4648C151.021 17.9414 154.812 17.1797 158.841 17.1797C162.87 17.1797 166.644 17.9414 170.165 19.4648C173.72 20.9883 176.818 23.0703 179.458 25.7109C182.099 28.3516 184.181 31.4492 185.704 35.0039C187.228 38.5247 187.989 42.2995 187.989 46.3281V90ZM216.768 90H202.194V17.1797H253.178V31.7539H216.768V46.3281H238.604V60.9023H216.768V90ZM276.828 90H262.254V17.1797H313.238V31.7539H276.828V46.3281H298.664V60.9023H276.828V90Z" fill="white"/>
</svg>
