<svg width="574" height="120" viewBox="0 0 574 120" fill="none" xmlns="http://www.w3.org/2000/svg">
<path d="M44.6035 46.7539V75.9023H59.1777C61.1751 75.9023 63.054 75.5299 64.8144 74.7852C66.5748 74.0065 68.1152 72.957 69.4355 71.6367C70.7558 70.3164 71.7884 68.776 72.5331 67.0156C73.3118 65.2214 73.7011 63.3255 73.7011 61.3281C73.7011 59.3307 73.3118 57.4518 72.5331 55.6914C71.7884 53.8971 70.7558 52.3398 69.4355 51.0195C68.1152 49.6992 66.5748 48.6667 64.8144 47.9219C63.054 47.1432 61.1751 46.7539 59.1777 46.7539H44.6035ZM44.6035 105H30.0292V32.1797H59.1777C61.8522 32.1797 64.4251 32.5352 66.8964 33.2461C69.3678 33.9232 71.6699 34.9049 73.8027 36.1914C75.9693 37.444 77.9329 38.9674 79.6933 40.7617C81.4876 42.5221 83.011 44.4857 84.2636 46.6523C85.5501 48.819 86.5318 51.138 87.2089 53.6094C87.9199 56.0807 88.2753 58.6536 88.2753 61.3281C88.2753 65.3229 87.5136 69.0977 85.9902 72.6523C84.4667 76.1732 82.3847 79.2539 79.7441 81.8945C77.1035 84.5352 74.0058 86.6172 70.4511 88.1406C66.9303 89.6641 63.1725 90.4258 59.1777 90.4258H44.6035V105ZM148.335 105H98.4174V32.1797H148.335V46.7539H112.992V61.3281H136.91V75.9023H112.992V90.4258H148.335V105ZM174.677 46.7539V75.9023H189.251C191.248 75.9023 193.127 75.5299 194.888 74.7852C196.648 74.0065 198.188 72.957 199.509 71.6367C200.829 70.3164 201.861 68.776 202.606 67.0156C203.385 65.2214 203.774 63.3255 203.774 61.3281C203.774 59.3307 203.385 57.4518 202.606 55.6914C201.861 53.8971 200.829 52.3398 199.509 51.0195C198.188 49.6992 196.648 48.6667 194.888 47.9219C193.127 47.1432 191.248 46.7539 189.251 46.7539H174.677ZM174.677 105H160.102V32.1797H189.251C191.925 32.1797 194.498 32.5352 196.97 33.2461C199.441 33.9232 201.743 34.9049 203.876 36.1914C206.042 37.444 208.006 38.9674 209.766 40.7617C211.561 42.5221 213.084 44.4857 214.337 46.6523C215.623 48.819 216.605 51.138 217.282 53.6094C217.993 56.0807 218.348 58.6536 218.348 61.3281C218.348 63.8333 218.027 66.2708 217.384 68.6406C216.774 71.0104 215.877 73.2617 214.692 75.3945C213.541 77.5273 212.119 79.4909 210.427 81.2852C208.734 83.0794 206.838 84.6367 204.739 85.957L212.813 105H197.325L190.977 90.3242L174.677 90.4258V105ZM225.24 54.0156C225.24 51.0026 225.816 48.1758 226.967 45.5352C228.118 42.8945 229.675 40.5924 231.639 38.6289C233.636 36.6315 235.955 35.0573 238.596 33.9062C241.237 32.7552 244.063 32.1797 247.076 32.1797H280.49V46.7539H247.076C246.061 46.7539 245.113 46.9401 244.233 47.3125C243.352 47.6849 242.574 48.2096 241.897 48.8867C241.253 49.5299 240.746 50.2917 240.373 51.1719C240.001 52.0521 239.815 53 239.815 54.0156C239.815 55.0312 240.001 55.9961 240.373 56.9102C240.746 57.7904 241.253 58.569 241.897 59.2461C242.574 59.8893 243.352 60.3971 244.233 60.7695C245.113 61.1419 246.061 61.3281 247.076 61.3281H261.651C264.664 61.3281 267.49 61.9036 270.131 63.0547C272.806 64.1719 275.125 65.7292 277.088 67.7266C279.086 69.6901 280.643 72.0091 281.76 74.6836C282.911 77.3242 283.487 80.151 283.487 83.1641C283.487 86.1771 282.911 89.0039 281.76 91.6445C280.643 94.2852 279.086 96.6042 277.088 98.6016C275.125 100.565 272.806 102.122 270.131 103.273C267.49 104.424 264.664 105 261.651 105H229.303V90.4258H261.651C262.666 90.4258 263.614 90.2396 264.494 89.8672C265.375 89.4948 266.136 88.987 266.78 88.3438C267.457 87.6667 267.981 86.888 268.354 86.0078C268.726 85.1276 268.912 84.1797 268.912 83.1641C268.912 82.1484 268.726 81.2005 268.354 80.3203C267.981 79.4401 267.457 78.6784 266.78 78.0352C266.136 77.3581 265.375 76.8333 264.494 76.4609C263.614 76.0885 262.666 75.9023 261.651 75.9023H247.076C244.063 75.9023 241.237 75.3268 238.596 74.1758C235.955 73.0247 233.636 71.4674 231.639 69.5039C229.675 67.5065 228.118 65.1875 226.967 62.5469C225.816 59.8724 225.24 57.0286 225.24 54.0156ZM365.992 68.8945C365.992 72.3477 365.535 75.6823 364.621 78.8984C363.741 82.0807 362.488 85.0768 360.863 87.8867C359.238 90.6628 357.274 93.2018 354.972 95.5039C352.67 97.806 350.131 99.7865 347.355 101.445C344.579 103.07 341.583 104.323 338.367 105.203C335.151 106.117 331.816 106.574 328.363 106.574C324.91 106.574 321.575 106.117 318.359 105.203C315.177 104.323 312.181 103.07 309.371 101.445C306.595 99.7865 304.056 97.806 301.754 95.5039C299.452 93.2018 297.471 90.6628 295.812 87.8867C294.187 85.0768 292.918 82.0807 292.004 78.8984C291.123 75.6823 290.683 72.3477 290.683 68.8945C290.683 65.4414 291.123 62.1068 292.004 58.8906C292.918 55.6745 294.187 52.6784 295.812 49.9023C297.471 47.1263 299.452 44.5872 301.754 42.2852C304.056 39.9831 306.595 38.0195 309.371 36.3945C312.181 34.7695 315.177 33.5169 318.359 32.6367C321.575 31.7227 324.91 31.2656 328.363 31.2656C331.816 31.2656 335.151 31.7227 338.367 32.6367C341.583 33.5169 344.579 34.7695 347.355 36.3945C350.131 38.0195 352.67 39.9831 354.972 42.2852C357.274 44.5872 359.238 47.1263 360.863 49.9023C362.488 52.6784 363.741 55.6745 364.621 58.8906C365.535 62.1068 365.992 65.4414 365.992 68.8945ZM351.519 68.8945C351.519 65.7122 350.91 62.7161 349.691 59.9062C348.472 57.0625 346.813 54.6081 344.715 52.543C342.649 50.444 340.195 48.7852 337.351 47.5664C334.541 46.3477 331.545 45.7383 328.363 45.7383C325.147 45.7383 322.134 46.3477 319.324 47.5664C316.514 48.7852 314.06 50.444 311.961 52.543C309.862 54.6081 308.203 57.0625 306.984 59.9062C305.765 62.7161 305.156 65.7122 305.156 68.8945C305.156 72.0768 305.765 75.0729 306.984 77.8828C308.203 80.6589 309.862 83.0964 311.961 85.1953C314.06 87.2943 316.514 88.9531 319.324 90.1719C322.134 91.3906 325.147 92 328.363 92C331.545 92 334.541 91.3906 337.351 90.1719C340.195 88.9531 342.649 87.2943 344.715 85.1953C346.813 83.0964 348.472 80.6589 349.691 77.8828C350.91 75.0729 351.519 72.0768 351.519 68.8945ZM435.396 105H419.806L391.724 57.0625V105H377.15V32.1797H392.739L420.821 80.168V32.1797H435.396V105ZM493.374 75.9023V61.3281C493.374 59.3307 492.984 57.4518 492.206 55.6914C491.461 53.8971 490.428 52.3398 489.108 51.0195C487.788 49.6992 486.23 48.6667 484.436 47.9219C482.676 47.1432 480.797 46.7539 478.799 46.7539C476.802 46.7539 474.906 47.1432 473.112 47.9219C471.351 48.6667 469.811 49.6992 468.491 51.0195C467.17 52.3398 466.121 53.8971 465.342 55.6914C464.598 57.4518 464.225 59.3307 464.225 61.3281V75.9023H493.374ZM507.948 105H493.374V90.4258H464.225V105H449.702V61.3281C449.702 57.2995 450.463 53.5247 451.987 50.0039C453.51 46.4492 455.575 43.3516 458.182 40.7109C460.823 38.0703 463.904 35.9883 467.424 34.4648C470.979 32.9414 474.771 32.1797 478.799 32.1797C482.828 32.1797 486.603 32.9414 490.124 34.4648C493.678 35.9883 496.776 38.0703 499.417 40.7109C502.057 43.3516 504.139 46.4492 505.663 50.0039C507.186 53.5247 507.948 57.2995 507.948 61.3281V105ZM573.137 105H522.152V32.1797H536.727V90.4258H573.137V105Z" fill="#076C72" fill-opacity="0.39"/>
<path d="M21.6035 31.7539V60.9023H36.1777C38.1751 60.9023 40.054 60.5299 41.8144 59.7852C43.5748 59.0065 45.1152 57.957 46.4355 56.6367C47.7558 55.3164 48.7884 53.776 49.5331 52.0156C50.3118 50.2214 50.7011 48.3255 50.7011 46.3281C50.7011 44.3307 50.3118 42.4518 49.5331 40.6914C48.7884 38.8971 47.7558 37.3398 46.4355 36.0195C45.1152 34.6992 43.5748 33.6667 41.8144 32.9219C40.054 32.1432 38.1751 31.7539 36.1777 31.7539H21.6035ZM21.6035 90H7.02924V17.1797H36.1777C38.8522 17.1797 41.4251 17.5352 43.8964 18.2461C46.3678 18.9232 48.6699 19.9049 50.8027 21.1914C52.9693 22.444 54.9329 23.9674 56.6933 25.7617C58.4876 27.5221 60.011 29.4857 61.2636 31.6523C62.5501 33.819 63.5318 36.138 64.2089 38.6094C64.9199 41.0807 65.2753 43.6536 65.2753 46.3281C65.2753 50.3229 64.5136 54.0977 62.9902 57.6523C61.4667 61.1732 59.3847 64.2539 56.7441 66.8945C54.1035 69.5352 51.0058 71.6172 47.4511 73.1406C43.9303 74.6641 40.1725 75.4258 36.1777 75.4258H21.6035V90ZM125.335 90H75.4174V17.1797H125.335V31.7539H89.9916V46.3281H113.91V60.9023H89.9916V75.4258H125.335V90ZM151.677 31.7539V60.9023H166.251C168.248 60.9023 170.127 60.5299 171.888 59.7852C173.648 59.0065 175.188 57.957 176.509 56.6367C177.829 55.3164 178.861 53.776 179.606 52.0156C180.385 50.2214 180.774 48.3255 180.774 46.3281C180.774 44.3307 180.385 42.4518 179.606 40.6914C178.861 38.8971 177.829 37.3398 176.509 36.0195C175.188 34.6992 173.648 33.6667 171.888 32.9219C170.127 32.1432 168.248 31.7539 166.251 31.7539H151.677ZM151.677 90H137.102V17.1797H166.251C168.925 17.1797 171.498 17.5352 173.97 18.2461C176.441 18.9232 178.743 19.9049 180.876 21.1914C183.042 22.444 185.006 23.9674 186.766 25.7617C188.561 27.5221 190.084 29.4857 191.337 31.6523C192.623 33.819 193.605 36.138 194.282 38.6094C194.993 41.0807 195.348 43.6536 195.348 46.3281C195.348 48.8333 195.027 51.2708 194.384 53.6406C193.774 56.0104 192.877 58.2617 191.692 60.3945C190.541 62.5273 189.119 64.4909 187.427 66.2852C185.734 68.0794 183.838 69.6367 181.739 70.957L189.813 90H174.325L167.977 75.3242L151.677 75.4258V90ZM202.24 39.0156C202.24 36.0026 202.816 33.1758 203.967 30.5352C205.118 27.8945 206.675 25.5924 208.639 23.6289C210.636 21.6315 212.955 20.0573 215.596 18.9062C218.237 17.7552 221.063 17.1797 224.076 17.1797H257.49V31.7539H224.076C223.061 31.7539 222.113 31.9401 221.233 32.3125C220.352 32.6849 219.574 33.2096 218.897 33.8867C218.253 34.5299 217.746 35.2917 217.373 36.1719C217.001 37.0521 216.815 38 216.815 39.0156C216.815 40.0312 217.001 40.9961 217.373 41.9102C217.746 42.7904 218.253 43.569 218.897 44.2461C219.574 44.8893 220.352 45.3971 221.233 45.7695C222.113 46.1419 223.061 46.3281 224.076 46.3281H238.651C241.664 46.3281 244.49 46.9036 247.131 48.0547C249.806 49.1719 252.125 50.7292 254.088 52.7266C256.086 54.6901 257.643 57.0091 258.76 59.6836C259.911 62.3242 260.487 65.151 260.487 68.1641C260.487 71.1771 259.911 74.0039 258.76 76.6445C257.643 79.2852 256.086 81.6042 254.088 83.6016C252.125 85.5651 249.806 87.1224 247.131 88.2734C244.49 89.4245 241.664 90 238.651 90H206.303V75.4258H238.651C239.666 75.4258 240.614 75.2396 241.494 74.8672C242.375 74.4948 243.136 73.987 243.78 73.3438C244.457 72.6667 244.981 71.888 245.354 71.0078C245.726 70.1276 245.912 69.1797 245.912 68.1641C245.912 67.1484 245.726 66.2005 245.354 65.3203C244.981 64.4401 244.457 63.6784 243.78 63.0352C243.136 62.3581 242.375 61.8333 241.494 61.4609C240.614 61.0885 239.666 60.9023 238.651 60.9023H224.076C221.063 60.9023 218.237 60.3268 215.596 59.1758C212.955 58.0247 210.636 56.4674 208.639 54.5039C206.675 52.5065 205.118 50.1875 203.967 47.5469C202.816 44.8724 202.24 42.0286 202.24 39.0156ZM342.992 53.8945C342.992 57.3477 342.535 60.6823 341.621 63.8984C340.741 67.0807 339.488 70.0768 337.863 72.8867C336.238 75.6628 334.274 78.2018 331.972 80.5039C329.67 82.806 327.131 84.7865 324.355 86.4453C321.579 88.0703 318.583 89.3229 315.367 90.2031C312.151 91.1172 308.816 91.5742 305.363 91.5742C301.91 91.5742 298.575 91.1172 295.359 90.2031C292.177 89.3229 289.181 88.0703 286.371 86.4453C283.595 84.7865 281.056 82.806 278.754 80.5039C276.452 78.2018 274.471 75.6628 272.812 72.8867C271.187 70.0768 269.918 67.0807 269.004 63.8984C268.123 60.6823 267.683 57.3477 267.683 53.8945C267.683 50.4414 268.123 47.1068 269.004 43.8906C269.918 40.6745 271.187 37.6784 272.812 34.9023C274.471 32.1263 276.452 29.5872 278.754 27.2852C281.056 24.9831 283.595 23.0195 286.371 21.3945C289.181 19.7695 292.177 18.5169 295.359 17.6367C298.575 16.7227 301.91 16.2656 305.363 16.2656C308.816 16.2656 312.151 16.7227 315.367 17.6367C318.583 18.5169 321.579 19.7695 324.355 21.3945C327.131 23.0195 329.67 24.9831 331.972 27.2852C334.274 29.5872 336.238 32.1263 337.863 34.9023C339.488 37.6784 340.741 40.6745 341.621 43.8906C342.535 47.1068 342.992 50.4414 342.992 53.8945ZM328.519 53.8945C328.519 50.7122 327.91 47.7161 326.691 44.9062C325.472 42.0625 323.813 39.6081 321.715 37.543C319.649 35.444 317.195 33.7852 314.351 32.5664C311.541 31.3477 308.545 30.7383 305.363 30.7383C302.147 30.7383 299.134 31.3477 296.324 32.5664C293.514 33.7852 291.06 35.444 288.961 37.543C286.862 39.6081 285.203 42.0625 283.984 44.9062C282.765 47.7161 282.156 50.7122 282.156 53.8945C282.156 57.0768 282.765 60.0729 283.984 62.8828C285.203 65.6589 286.862 68.0964 288.961 70.1953C291.06 72.2943 293.514 73.9531 296.324 75.1719C299.134 76.3906 302.147 77 305.363 77C308.545 77 311.541 76.3906 314.351 75.1719C317.195 73.9531 319.649 72.2943 321.715 70.1953C323.813 68.0964 325.472 65.6589 326.691 62.8828C327.91 60.0729 328.519 57.0768 328.519 53.8945ZM412.396 90H396.806L368.724 42.0625V90H354.15V17.1797H369.739L397.821 65.168V17.1797H412.396V90ZM470.374 60.9023V46.3281C470.374 44.3307 469.984 42.4518 469.206 40.6914C468.461 38.8971 467.428 37.3398 466.108 36.0195C464.788 34.6992 463.23 33.6667 461.436 32.9219C459.676 32.1432 457.797 31.7539 455.799 31.7539C453.802 31.7539 451.906 32.1432 450.112 32.9219C448.351 33.6667 446.811 34.6992 445.491 36.0195C444.17 37.3398 443.121 38.8971 442.342 40.6914C441.598 42.4518 441.225 44.3307 441.225 46.3281V60.9023H470.374ZM484.948 90H470.374V75.4258H441.225V90H426.702V46.3281C426.702 42.2995 427.463 38.5247 428.987 35.0039C430.51 31.4492 432.575 28.3516 435.182 25.7109C437.823 23.0703 440.904 20.9883 444.424 19.4648C447.979 17.9414 451.771 17.1797 455.799 17.1797C459.828 17.1797 463.603 17.9414 467.124 19.4648C470.678 20.9883 473.776 23.0703 476.417 25.7109C479.057 28.3516 481.139 31.4492 482.663 35.0039C484.186 38.5247 484.948 42.2995 484.948 46.3281V90ZM550.137 90H499.152V17.1797H513.727V75.4258H550.137V90Z" fill="white"/>
</svg>
