<svg width="559" height="112" viewBox="0 0 559 112" fill="none" xmlns="http://www.w3.org/2000/svg">
<path d="M69.1562 50.2344V77.1406H82.6094C84.4531 77.1406 86.1875 76.7969 87.8125 76.1094C89.4375 75.3906 90.8594 74.4219 92.0781 73.2031C93.2969 71.9844 94.25 70.5625 94.9375 68.9375C95.6562 67.2812 96.0156 65.5312 96.0156 63.6875C96.0156 61.8438 95.6562 60.1094 94.9375 58.4844C94.25 56.8281 93.2969 55.3906 92.0781 54.1719C90.8594 52.9531 89.4375 52 87.8125 51.3125C86.1875 50.5938 84.4531 50.2344 82.6094 50.2344H69.1562ZM69.1562 104H55.7031V36.7812H82.6094C85.0781 36.7812 87.4531 37.1094 89.7344 37.7656C92.0156 38.3906 94.1406 39.2969 96.1094 40.4844C98.1094 41.6406 99.9219 43.0469 101.547 44.7031C103.203 46.3281 104.609 48.1406 105.766 50.1406C106.953 52.1406 107.859 54.2812 108.484 56.5625C109.141 58.8438 109.469 61.2188 109.469 63.6875C109.469 67.375 108.766 70.8594 107.359 74.1406C105.953 77.3906 104.031 80.2344 101.594 82.6719C99.1562 85.1094 96.2969 87.0312 93.0156 88.4375C89.7656 89.8438 86.2969 90.5469 82.6094 90.5469H69.1562V104ZM130.844 50.2344V77.1406H144.297C146.141 77.1406 147.875 76.7969 149.5 76.1094C151.125 75.3906 152.547 74.4219 153.766 73.2031C154.984 71.9844 155.938 70.5625 156.625 68.9375C157.344 67.2812 157.703 65.5312 157.703 63.6875C157.703 61.8438 157.344 60.1094 156.625 58.4844C155.938 56.8281 154.984 55.3906 153.766 54.1719C152.547 52.9531 151.125 52 149.5 51.3125C147.875 50.5938 146.141 50.2344 144.297 50.2344H130.844ZM130.844 104H117.391V36.7812H144.297C146.766 36.7812 149.141 37.1094 151.422 37.7656C153.703 38.3906 155.828 39.2969 157.797 40.4844C159.797 41.6406 161.609 43.0469 163.234 44.7031C164.891 46.3281 166.297 48.1406 167.453 50.1406C168.641 52.1406 169.547 54.2812 170.172 56.5625C170.828 58.8438 171.156 61.2188 171.156 63.6875C171.156 66 170.859 68.25 170.266 70.4375C169.703 72.625 168.875 74.7031 167.781 76.6719C166.719 78.6406 165.406 80.4531 163.844 82.1094C162.281 83.7656 160.531 85.2031 158.594 86.4219L166.047 104H151.75L145.891 90.4531L130.844 90.5469V104ZM193.469 104H180.016V36.7812H193.469V104ZM259.656 97.1094C256.531 99.7969 253.031 101.859 249.156 103.297C245.281 104.734 241.266 105.453 237.109 105.453C233.922 105.453 230.844 105.031 227.875 104.188C224.938 103.375 222.172 102.219 219.578 100.719C217.016 99.1875 214.672 97.3594 212.547 95.2344C210.422 93.1094 208.594 90.7656 207.062 88.2031C205.562 85.6094 204.391 82.8438 203.547 79.9062C202.734 76.9375 202.328 73.8594 202.328 70.6719C202.328 67.4844 202.734 64.4062 203.547 61.4375C204.391 58.4688 205.562 55.7031 207.062 53.1406C208.594 50.5469 210.422 48.1875 212.547 46.0625C214.672 43.9375 217.016 42.125 219.578 40.625C222.172 39.0938 224.938 37.9219 227.875 37.1094C230.844 36.2656 233.922 35.8438 237.109 35.8438C241.266 35.8438 245.281 36.5625 249.156 38C253.031 39.4062 256.531 41.4688 259.656 44.1875L252.531 55.9062C250.562 53.7812 248.234 52.1562 245.547 51.0312C242.859 49.875 240.047 49.2969 237.109 49.2969C234.141 49.2969 231.359 49.8594 228.766 50.9844C226.172 52.1094 223.906 53.6406 221.969 55.5781C220.031 57.4844 218.5 59.75 217.375 62.375C216.25 64.9688 215.688 67.7344 215.688 70.6719C215.688 73.6094 216.25 76.375 217.375 78.9688C218.5 81.5312 220.031 83.7812 221.969 85.7188C223.906 87.6562 226.172 89.1875 228.766 90.3125C231.359 91.4375 234.141 92 237.109 92C240.047 92 242.859 91.4375 245.547 90.3125C248.234 89.1562 250.562 87.5156 252.531 85.3906L259.656 97.1094ZM313.562 104H267.484V36.7812H313.562V50.2344H280.938V63.6875H303.016V77.1406H280.938V90.5469H313.562V104ZM359.922 63.6875V76.4375H320.547V63.6875H359.922ZM418.984 104H371.922V36.7812H385.375V90.5469H418.984V104ZM439.469 104H426.016V36.7812H439.469V104ZM448.047 56.9375C448.047 54.1562 448.578 51.5469 449.641 49.1094C450.703 46.6719 452.141 44.5469 453.953 42.7344C455.797 40.8906 457.938 39.4375 460.375 38.375C462.812 37.3125 465.422 36.7812 468.203 36.7812H499.047V50.2344H468.203C467.266 50.2344 466.391 50.4062 465.578 50.75C464.766 51.0938 464.047 51.5781 463.422 52.2031C462.828 52.7969 462.359 53.5 462.016 54.3125C461.672 55.125 461.5 56 461.5 56.9375C461.5 57.875 461.672 58.7656 462.016 59.6094C462.359 60.4219 462.828 61.1406 463.422 61.7656C464.047 62.3594 464.766 62.8281 465.578 63.1719C466.391 63.5156 467.266 63.6875 468.203 63.6875H481.656C484.438 63.6875 487.047 64.2188 489.484 65.2812C491.953 66.3125 494.094 67.75 495.906 69.5938C497.75 71.4062 499.188 73.5469 500.219 76.0156C501.281 78.4531 501.812 81.0625 501.812 83.8438C501.812 86.625 501.281 89.2344 500.219 91.6719C499.188 94.1094 497.75 96.25 495.906 98.0938C494.094 99.9062 491.953 101.344 489.484 102.406C487.047 103.469 484.438 104 481.656 104H451.797V90.5469H481.656C482.594 90.5469 483.469 90.375 484.281 90.0312C485.094 89.6875 485.797 89.2188 486.391 88.625C487.016 88 487.5 87.2812 487.844 86.4688C488.188 85.6562 488.359 84.7812 488.359 83.8438C488.359 82.9062 488.188 82.0312 487.844 81.2188C487.5 80.4062 487.016 79.7031 486.391 79.1094C485.797 78.4844 485.094 78 484.281 77.6562C483.469 77.3125 482.594 77.1406 481.656 77.1406H468.203C465.422 77.1406 462.812 76.6094 460.375 75.5469C457.938 74.4844 455.797 73.0469 453.953 71.2344C452.141 69.3906 450.703 67.25 449.641 64.8125C448.578 62.3438 448.047 59.7188 448.047 56.9375ZM537.953 104H524.547V50.2344H504.344V36.7812H558.109V50.2344H537.953V104Z" fill="#076C72" fill-opacity="0.39"/>
<path d="M21.3359 26.7539V55.9023H35.9102C37.9076 55.9023 39.7865 55.5299 41.5469 54.7852C43.3073 54.0065 44.8477 52.957 46.168 51.6367C47.4883 50.3164 48.5208 48.776 49.2656 47.0156C50.0443 45.2214 50.4336 43.3255 50.4336 41.3281C50.4336 39.3307 50.0443 37.4518 49.2656 35.6914C48.5208 33.8971 47.4883 32.3398 46.168 31.0195C44.8477 29.6992 43.3073 28.6667 41.5469 27.9219C39.7865 27.1432 37.9076 26.7539 35.9102 26.7539H21.3359ZM21.3359 85H6.76172V12.1797H35.9102C38.5846 12.1797 41.1576 12.5352 43.6289 13.2461C46.1003 13.9232 48.4023 14.9049 50.5352 16.1914C52.7018 17.444 54.6654 18.9674 56.4258 20.7617C58.2201 22.5221 59.7435 24.4857 60.9961 26.6523C62.2826 28.819 63.2643 31.138 63.9414 33.6094C64.6523 36.0807 65.0078 38.6536 65.0078 41.3281C65.0078 45.3229 64.2461 49.0977 62.7227 52.6523C61.1992 56.1732 59.1172 59.2539 56.4766 61.8945C53.8359 64.5352 50.7383 66.6172 47.1836 68.1406C43.6628 69.6641 39.9049 70.4258 35.9102 70.4258H21.3359V85ZM88.1641 26.7539V55.9023H102.738C104.736 55.9023 106.615 55.5299 108.375 54.7852C110.135 54.0065 111.676 52.957 112.996 51.6367C114.316 50.3164 115.349 48.776 116.094 47.0156C116.872 45.2214 117.262 43.3255 117.262 41.3281C117.262 39.3307 116.872 37.4518 116.094 35.6914C115.349 33.8971 114.316 32.3398 112.996 31.0195C111.676 29.6992 110.135 28.6667 108.375 27.9219C106.615 27.1432 104.736 26.7539 102.738 26.7539H88.1641ZM88.1641 85H73.5898V12.1797H102.738C105.413 12.1797 107.986 12.5352 110.457 13.2461C112.928 13.9232 115.23 14.9049 117.363 16.1914C119.53 17.444 121.493 18.9674 123.254 20.7617C125.048 22.5221 126.572 24.4857 127.824 26.6523C129.111 28.819 130.092 31.138 130.77 33.6094C131.48 36.0807 131.836 38.6536 131.836 41.3281C131.836 43.8333 131.514 46.2708 130.871 48.6406C130.262 51.0104 129.365 53.2617 128.18 55.3945C127.029 57.5273 125.607 59.4909 123.914 61.2852C122.221 63.0794 120.326 64.6367 118.227 65.957L126.301 85H110.812L104.465 70.3242L88.1641 70.4258V85ZM156.008 85H141.434V12.1797H156.008V85ZM227.711 77.5352C224.326 80.4466 220.534 82.681 216.336 84.2383C212.138 85.7956 207.788 86.5742 203.285 86.5742C199.832 86.5742 196.497 86.1172 193.281 85.2031C190.099 84.3229 187.103 83.0703 184.293 81.4453C181.517 79.7865 178.978 77.806 176.676 75.5039C174.374 73.2018 172.393 70.6628 170.734 67.8867C169.109 65.0768 167.84 62.0807 166.926 58.8984C166.046 55.6823 165.605 52.3477 165.605 48.8945C165.605 45.4414 166.046 42.1068 166.926 38.8906C167.84 35.6745 169.109 32.6784 170.734 29.9023C172.393 27.0924 174.374 24.5365 176.676 22.2344C178.978 19.9323 181.517 17.9688 184.293 16.3438C187.103 14.6849 190.099 13.4154 193.281 12.5352C196.497 11.6211 199.832 11.1641 203.285 11.1641C207.788 11.1641 212.138 11.9427 216.336 13.5C220.534 15.0234 224.326 17.2578 227.711 20.2031L219.992 32.8984C217.859 30.5964 215.337 28.8359 212.426 27.6172C209.514 26.3646 206.467 25.7383 203.285 25.7383C200.069 25.7383 197.056 26.3477 194.246 27.5664C191.436 28.7852 188.982 30.444 186.883 32.543C184.784 34.6081 183.125 37.0625 181.906 39.9062C180.688 42.7161 180.078 45.7122 180.078 48.8945C180.078 52.0768 180.688 55.0729 181.906 57.8828C183.125 60.6589 184.784 63.0964 186.883 65.1953C188.982 67.2943 191.436 68.9531 194.246 70.1719C197.056 71.3906 200.069 72 203.285 72C206.467 72 209.514 71.3906 212.426 70.1719C215.337 68.9193 217.859 67.1419 219.992 64.8398L227.711 77.5352ZM286.109 85H236.191V12.1797H286.109V26.7539H250.766V41.3281H274.684V55.9023H250.766V70.4258H286.109V85ZM336.332 41.3281V55.1406H293.676V41.3281H336.332ZM400.316 85H349.332V12.1797H363.906V70.4258H400.316V85ZM422.508 85H407.934V12.1797H422.508V85ZM431.801 34.0156C431.801 31.0026 432.376 28.1758 433.527 25.5352C434.678 22.8945 436.236 20.5924 438.199 18.6289C440.197 16.6315 442.516 15.0573 445.156 13.9062C447.797 12.7552 450.624 12.1797 453.637 12.1797H487.051V26.7539H453.637C452.621 26.7539 451.673 26.9401 450.793 27.3125C449.913 27.6849 449.134 28.2096 448.457 28.8867C447.814 29.5299 447.306 30.2917 446.934 31.1719C446.561 32.0521 446.375 33 446.375 34.0156C446.375 35.0312 446.561 35.9961 446.934 36.9102C447.306 37.7904 447.814 38.569 448.457 39.2461C449.134 39.8893 449.913 40.3971 450.793 40.7695C451.673 41.1419 452.621 41.3281 453.637 41.3281H468.211C471.224 41.3281 474.051 41.9036 476.691 43.0547C479.366 44.1719 481.685 45.7292 483.648 47.7266C485.646 49.6901 487.203 52.0091 488.32 54.6836C489.471 57.3242 490.047 60.151 490.047 63.1641C490.047 66.1771 489.471 69.0039 488.32 71.6445C487.203 74.2852 485.646 76.6042 483.648 78.6016C481.685 80.5651 479.366 82.1224 476.691 83.2734C474.051 84.4245 471.224 85 468.211 85H435.863V70.4258H468.211C469.227 70.4258 470.174 70.2396 471.055 69.8672C471.935 69.4948 472.697 68.987 473.34 68.3438C474.017 67.6667 474.542 66.888 474.914 66.0078C475.286 65.1276 475.473 64.1797 475.473 63.1641C475.473 62.1484 475.286 61.2005 474.914 60.3203C474.542 59.4401 474.017 58.6784 473.34 58.0352C472.697 57.3581 471.935 56.8333 471.055 56.4609C470.174 56.0885 469.227 55.9023 468.211 55.9023H453.637C450.624 55.9023 447.797 55.3268 445.156 54.1758C442.516 53.0247 440.197 51.4674 438.199 49.5039C436.236 47.5065 434.678 45.1875 433.527 42.5469C432.376 39.8724 431.801 37.0286 431.801 34.0156ZM529.199 85H514.676V26.7539H492.789V12.1797H551.035V26.7539H529.199V85Z" fill="white"/>
</svg>
