<svg width="82" height="81" viewBox="0 0 82 81" fill="none" xmlns="http://www.w3.org/2000/svg">
<g clip-path="url(#clip0)">
<path d="M40.77 0V6.51764H74.5803V74.1382H40.77V80.6558H81.0979V0H40.77Z" fill="#076C72"/>
<path d="M6.95954 74.1382V6.51764H40.7698V0H0.441895V80.6558H40.7698V74.1382H6.95954Z" fill="#076C72"/>
<path d="M16.0131 39.4115L27.8398 43.8254L32.4175 58.5473C32.7104 59.4898 33.8634 59.8383 34.6284 59.2126L41.221 53.8386C41.9119 53.2752 42.8964 53.2475 43.6182 53.7715L55.5088 62.4043C56.3273 62.999 57.4872 62.5508 57.6924 61.5616L66.4029 19.6635C66.6269 18.5829 65.5655 17.6815 64.5366 18.0796L15.9994 36.804C14.8014 37.2656 14.8117 38.9615 16.0131 39.4115ZM31.6797 41.476L54.7935 27.2403C55.2087 26.9853 55.6362 27.5469 55.2792 27.8779L36.2039 45.6093C35.5332 46.2332 35.1008 47.0688 34.9782 47.9755L34.3288 52.7909C34.2422 53.4337 33.3395 53.4973 33.1618 52.8752L30.6628 44.0941C30.3768 43.0927 30.7938 42.0226 31.6797 41.476Z" fill="#076C72"/>
</g>
<defs>
<clipPath id="clip0">
<rect width="80.6558" height="80.6558" fill="white" transform="translate(0.441895)"/>
</clipPath>
</defs>
</svg>
