<svg width="331" height="258" viewBox="0 0 331 258" fill="none" xmlns="http://www.w3.org/2000/svg">
<path d="M365.266 30.3125C352.73 30.3125 342.531 40.5111 342.531 53.0469C342.531 59.5898 345.313 65.4917 349.752 69.6437L307.992 98.2466L294.713 58.4122C302.37 54.7497 307.672 46.9283 307.672 37.8906C307.672 25.3549 297.473 15.1562 284.938 15.1562C272.402 15.1562 262.203 25.3549 262.203 37.8906C262.203 44.3699 264.933 50.221 269.296 54.3655L227.908 81.9559L205.325 42.4345C212.136 38.5037 216.734 31.1484 216.734 22.7344C216.734 10.1986 206.536 0 194 0C181.464 0 171.266 10.1986 171.266 22.7344C171.266 31.1484 175.864 38.5037 182.675 42.4345L160.092 81.9559L118.704 54.3655C123.068 50.2202 125.797 44.3699 125.797 37.8906C125.797 25.3549 115.598 15.1562 103.062 15.1562C90.5268 15.1562 80.3281 25.3549 80.3281 37.8906C80.3281 46.9283 85.6298 54.7497 93.286 58.4122L80.0083 98.2466L38.2483 69.6437C42.6868 65.4917 45.4688 59.5898 45.4688 53.0469C45.4688 40.5111 35.2701 30.3125 22.7344 30.3125C10.1986 30.3125 0 40.5111 0 53.0469C0 63.294 6.81652 71.9763 16.152 74.8059L24.9411 127.553C18.887 134.334 15.1562 146.054 15.1562 159.141C15.1562 179.97 24.2447 195.854 36.5144 196.964L45.5718 251.323C46.1803 254.977 49.3419 257.656 53.0469 257.656H159.898C164.084 257.656 167.477 254.264 167.477 250.078C167.477 245.893 164.084 242.5 159.898 242.5H59.4671L56.9413 227.344H331.058L328.532 242.5H228.102C223.916 242.5 220.523 245.893 220.523 250.078C220.523 254.264 223.916 257.656 228.102 257.656H334.953C338.658 257.656 341.82 254.977 342.428 251.323L351.486 196.964C363.755 195.854 372.844 179.97 372.844 159.141C372.844 146.054 369.113 134.334 363.059 127.553L371.848 74.8059C381.183 71.9763 388 63.294 388 53.0469C388 40.5111 377.801 30.3125 365.266 30.3125ZM284.938 30.3125C289.116 30.3125 292.516 33.712 292.516 37.8906C292.516 42.0692 289.116 45.4688 284.938 45.4688C280.759 45.4688 277.359 42.0692 277.359 37.8906C277.359 33.712 280.759 30.3125 284.938 30.3125ZM280.885 64.8559L294.985 107.155L257.126 133.086L235.446 95.1471L280.885 64.8559ZM194 15.1562C198.179 15.1562 201.578 18.5558 201.578 22.7344C201.578 26.913 198.179 30.3125 194 30.3125C189.821 30.3125 186.422 26.913 186.422 22.7344C186.422 18.5558 189.821 15.1562 194 15.1562ZM103.062 30.3125C107.241 30.3125 110.641 33.712 110.641 37.8906C110.641 42.0692 107.241 45.4688 103.062 45.4688C98.8839 45.4688 95.4844 42.0692 95.4844 37.8906C95.4844 33.712 98.8839 30.3125 103.062 30.3125ZM107.115 64.8559L152.554 95.1471L130.874 133.086L93.0147 107.155L107.115 64.8559ZM22.7344 45.4688C26.913 45.4688 30.3125 48.8683 30.3125 53.0469C30.3125 57.2255 26.913 60.625 22.7344 60.625C18.5558 60.625 15.1562 57.2255 15.1562 53.0469C15.1562 48.8683 18.5558 45.4688 22.7344 45.4688ZM30.3125 159.141C30.3125 146.881 34.3903 138.634 37.292 136.683C39.6124 135.157 45.4688 144.884 45.4688 159.141C45.4688 171.415 41.3811 179.667 38.4991 181.592C35.8059 183.378 30.3125 172.281 30.3125 159.141ZM54.4162 212.188L50.8401 190.728C56.8943 183.948 60.625 172.227 60.625 159.141C60.625 138.311 51.5366 122.427 39.2668 121.317L33.1338 84.5113L129.092 150.236C132.742 152.736 137.757 151.588 139.954 147.743L194 53.1643L248.045 147.744C250.249 151.603 255.268 152.729 258.907 150.237L354.865 84.5128L348.732 121.318C336.463 122.427 327.375 138.311 327.375 159.141C327.375 172.219 331.101 183.933 337.161 190.723L333.584 212.188H54.4162ZM350.109 181.875C347.979 181.875 342.531 173.072 342.531 159.141C342.531 145.449 347.887 136.406 350.109 136.406C352.143 136.406 357.688 144.982 357.688 159.141C357.688 172.832 352.331 181.875 350.109 181.875ZM365.266 60.625C361.087 60.625 357.688 57.2255 357.688 53.0469C357.688 48.8683 361.087 45.4688 365.266 45.4688C369.444 45.4688 372.844 48.8683 372.844 53.0469C372.844 57.2255 369.444 60.625 365.266 60.625Z" fill="white" fill-opacity="0.21"/>
<path d="M194 121.25C181.039 121.25 171.266 137.539 171.266 159.141C171.266 180.742 181.039 197.031 194 197.031C206.961 197.031 216.734 180.742 216.734 159.141C216.734 137.539 206.961 121.25 194 121.25ZM194 181.875C191.705 181.875 186.422 172.656 186.422 159.141C186.422 145.449 191.778 136.406 194 136.406C196.295 136.406 201.578 145.625 201.578 159.141C201.578 172.832 196.222 181.875 194 181.875Z" fill="white" fill-opacity="0.21"/>
<path d="M194 257.656C198.185 257.656 201.578 254.263 201.578 250.078C201.578 245.893 198.185 242.5 194 242.5C189.815 242.5 186.422 245.893 186.422 250.078C186.422 254.263 189.815 257.656 194 257.656Z" fill="white" fill-opacity="0.21"/>
</svg>
