<svg width="61" height="59" viewBox="0 0 61 59" fill="none" xmlns="http://www.w3.org/2000/svg">
<path d="M59.9831 8.43435H58.9665V6.40098C58.9652 5.27856 58.0557 4.36892 56.9331 4.36761H54.8998C54.8985 3.24519 53.9888 2.33556 52.8664 2.33424H50.833C49.7106 2.33556 48.801 3.24519 48.7997 4.36761V8.43423H38.6331V3.35099C38.6313 1.6673 37.2668 0.302782 35.5831 0.300995H25.4165C23.7328 0.302782 22.3683 1.6673 22.3665 3.35099V8.43435H12.1999V4.36761C12.1985 3.24519 11.2889 2.33556 10.1665 2.33424H8.13324C7.01081 2.33556 6.10118 3.24519 6.09987 4.36761H4.0665C2.94408 4.36892 2.03444 5.27856 2.03325 6.40098V8.43435H1.0165C0.454994 8.43435 -0.00012207 8.88947 -0.00012207 9.45098C-0.00012207 10.0125 0.454994 10.4676 1.0165 10.4676H2.03313V12.501C2.03444 13.6234 2.94408 14.533 4.0665 14.5343H6.09987C6.10118 15.6568 7.01069 16.5664 8.13324 16.5677H10.1666C11.289 16.5664 12.1987 15.6569 12.2 14.5343V10.4676H14.2333V22.6676C13.1109 22.6689 12.2013 23.5784 12.2 24.7009V52.3382C10.7997 52.8305 9.95918 54.2612 10.2107 55.7239C10.4622 57.1867 11.7325 58.2545 13.2167 58.2508H19.3167C20.801 58.2545 22.0712 57.1866 22.3227 55.7239C22.5742 54.2611 21.7336 52.8303 20.3335 52.3382V46.0509H27.4498V57.2343C27.4497 57.5039 27.5568 57.7625 27.7476 57.9533C27.9382 58.1439 28.1968 58.251 28.4666 58.251H32.5332C32.8028 58.2511 33.0615 58.144 33.2522 57.9533C33.4428 57.7626 33.5499 57.504 33.5499 57.2343V46.0509H40.6665V52.3382C39.2663 52.8305 38.4258 54.2612 38.6773 55.7239C38.9288 57.1867 40.199 58.2545 41.6833 58.2508H47.7833C49.2675 58.2545 50.5378 57.1866 50.7893 55.7239C51.0408 54.2611 50.2002 52.8303 48.8 52.3382V24.7009C48.7987 23.5785 47.8891 22.6689 46.7667 22.6676V10.4676H48.7998V14.5342C48.8011 15.6566 49.7106 16.5663 50.8332 16.5676H52.8665C53.9889 16.5663 54.8986 15.6568 54.8999 14.5342H56.9333C58.0557 14.5329 58.9653 13.6233 58.9666 12.5009V10.4676H59.9833C60.5448 10.4676 60.9999 10.0125 60.9999 9.45098C60.9999 8.88947 60.5446 8.43435 59.9831 8.43435ZM6.09987 12.501H4.0665V6.40098H6.09987V12.501ZM8.13324 14.5343V4.36761H10.1666L10.1671 9.44847L10.1665 9.45098L10.167 9.45348L10.1674 14.5343H8.13324ZM42.6998 10.4676H44.7332V22.6676H42.6998V10.4676ZM42.6998 24.7009H46.7664V52.1509H42.6998V45.8636C43.9174 45.4389 44.7332 44.2905 44.7332 43.0009C44.7332 41.7113 43.9174 40.5629 42.6998 40.1382V24.7009ZM38.6332 34.8676V10.4676H40.6665V39.9509H33.5498V37.9175H35.5832C37.2669 37.9158 38.6313 36.5512 38.6332 34.8676ZM24.3998 3.35099C24.4004 2.78972 24.8553 2.33484 25.4165 2.33436H35.5831C36.1443 2.33496 36.5992 2.78972 36.5997 3.35099V8.43435H24.3998V3.35099ZM24.3998 10.4676H36.5998V34.8676C36.5992 35.4288 36.1445 35.8837 35.5832 35.8842H25.4166C24.8553 35.8836 24.4004 35.4288 24.4 34.8676V10.4676H24.3998ZM31.5164 37.9175V39.9509H29.4831V37.9175H31.5164ZM20.3332 10.4676H22.3666V34.8676C22.3684 36.5512 23.7329 37.9158 25.4166 37.9175H27.4498V39.9509H20.3332V10.4676ZM16.2665 10.4676H18.2998V22.6676H16.2665V10.4676ZM14.2332 24.7009H18.2998V40.1382C17.0822 40.5628 16.2665 41.7112 16.2665 43.0008C16.2665 44.2904 17.0822 45.4388 18.2998 45.8634V52.1509H14.2332V24.7009V24.7009ZM19.3165 56.2175H13.2165C12.655 56.2175 12.1999 55.7624 12.1999 55.2009C12.1999 54.6394 12.655 54.1843 13.2165 54.1843H19.3165C19.878 54.1843 20.3331 54.6395 20.3331 55.2009C20.3331 55.7623 19.878 56.2175 19.3165 56.2175ZM31.5164 56.2175H29.4831V46.0509H31.5164V56.2175ZM32.5332 44.0175H19.3165C18.755 44.0175 18.2998 43.5624 18.2998 43.0009C18.2998 42.4394 18.755 41.9843 19.3165 41.9843H41.6831C42.2446 41.9843 42.6997 42.4394 42.6997 43.0009C42.6997 43.5624 42.2446 44.0175 41.6831 44.0175H32.5332ZM47.7832 54.1843C48.3447 54.1843 48.7998 54.6395 48.7998 55.2009C48.7998 55.7623 48.3447 56.2175 47.7832 56.2175H41.6832C41.1217 56.2175 40.6665 55.7624 40.6665 55.2009C40.6665 54.6394 41.1217 54.1843 41.6832 54.1843H47.7832ZM52.8664 14.5343H50.833V4.36761H52.8664V14.5343ZM56.9331 12.501H54.8998V6.40098H56.9331V12.501Z" fill="white"/>
</svg>
