<svg width="58" height="58" viewBox="0 0 58 58" fill="none" xmlns="http://www.w3.org/2000/svg">
<path d="M52.9022 47.8049C50.687 47.8049 48.7983 49.2257 48.0968 51.2033H33.8053C33.2924 49.7574 32.145 48.61 30.6991 48.0971V44.2932H45.9921C46.9305 44.2932 47.6913 43.5324 47.6913 42.5939V27.0078C49.7189 27.7257 51.9498 27.0941 53.3062 25.4664C55.1216 23.2872 54.8012 20.0768 52.658 18.2913L32.2639 1.18284C30.3726 -0.394826 27.6274 -0.394713 25.7324 1.1859L5.34607 18.2875C3.18206 20.0904 2.88957 23.3011 4.69323 25.466C6.09135 27.1452 8.35358 27.6942 10.3084 27.0062V42.5939C10.3084 43.5324 11.0692 44.2932 12.0076 44.2932H27.3005V48.0971C25.8546 48.61 24.7072 49.7574 24.1944 51.2033H9.90293C9.20149 49.2257 7.31275 47.8049 5.09753 47.8049C2.28669 47.8049 -0.00012207 50.0917 -0.00012207 52.9025C-0.00012207 55.7134 2.28669 58.0002 5.09753 58.0002C7.31275 58.0002 9.20149 56.5794 9.90293 54.6018H24.1945C24.8959 56.5794 26.7847 58.0002 28.9999 58.0002C31.2151 58.0002 33.1038 56.5794 33.8053 54.6018H48.0968C48.7983 56.5794 50.687 58.0002 52.9022 58.0002C55.7131 58.0002 57.9999 55.7134 57.9999 52.9025C57.9999 50.0917 55.7132 47.8049 52.9022 47.8049ZM5.09753 54.6018C4.16059 54.6018 3.39832 53.8395 3.39832 52.9025C3.39832 51.9656 4.16059 51.2033 5.09753 51.2033C6.03448 51.2033 6.79675 51.9656 6.79675 52.9025C6.79675 53.8395 6.0346 54.6018 5.09753 54.6018ZM9.69947 23.506C8.97696 24.1058 7.90283 24.0096 7.30448 23.2912C6.71168 22.5799 6.78848 21.5092 7.52583 20.8949L27.9128 3.7925C28.5427 3.2671 29.457 3.26699 30.0832 3.78944L50.4782 20.8987C51.1994 21.4995 51.2966 22.5695 50.6953 23.291C50.104 24.0006 49.0367 24.1196 48.3028 23.5082C47.4843 22.8261 31.3865 9.41193 30.0877 8.32964C29.7727 8.06706 29.3863 7.93576 28.9999 7.93576C28.6135 7.93576 28.2272 8.06706 27.912 8.32964C26.6476 9.38339 10.526 22.8172 9.69947 23.506ZM13.7069 40.8947V24.5904L28.9999 11.8469L44.2929 24.5904V40.8947H13.7069ZM28.9999 54.6018C28.0629 54.6018 27.3007 53.8395 27.3007 52.9025C27.3007 51.9656 28.0629 51.2033 28.9999 51.2033C29.9368 51.2033 30.6991 51.9656 30.6991 52.9025C30.6991 53.8395 29.9369 54.6018 28.9999 54.6018ZM52.9022 54.6018C51.9653 54.6018 51.203 53.8395 51.203 52.9025C51.203 51.9656 51.9653 51.2033 52.9022 51.2033C53.8392 51.2033 54.6014 51.9656 54.6014 52.9025C54.6014 53.8395 53.8393 54.6018 52.9022 54.6018Z" fill="white"/>
<path d="M40.3967 34.5964L36.0847 30.2844C36.9754 28.941 37.496 27.3318 37.496 25.6026C37.496 20.9179 33.6846 17.1065 28.9999 17.1065C24.3151 17.1065 20.5038 20.9179 20.5038 25.6026C20.5038 30.2874 24.3151 34.0987 28.9999 34.0987C30.7289 34.0986 32.3382 33.5781 33.6817 32.6875L37.9936 36.9994C38.6571 37.663 39.7331 37.663 40.3967 36.9994C41.0603 36.3359 41.0603 35.2599 40.3967 34.5964ZM28.9998 30.7002C26.1889 30.7002 23.9021 28.4134 23.9021 25.6025C23.9021 22.7917 26.1889 20.5049 28.9998 20.5049C31.8106 20.5049 34.0974 22.7917 34.0974 25.6025C34.0974 28.4133 31.8106 30.7002 28.9998 30.7002Z" fill="white"/>
</svg>
