<svg width="81" height="81" viewBox="0 0 81 81" fill="none" xmlns="http://www.w3.org/2000/svg">
<g clip-path="url(#clip0)">
<path fill-rule="evenodd" clip-rule="evenodd" d="M54.16 18.4883H26.4962C22.0811 18.4883 18.4884 22.0808 18.4884 26.496V54.1597C18.4884 58.5756 22.0811 62.1683 26.4962 62.1683H54.16C58.5757 62.1683 62.1684 58.5756 62.1684 54.1597V26.496C62.1684 22.081 58.5757 18.4883 54.16 18.4883ZM40.3275 54.7072C32.3995 54.7072 25.9486 48.2563 25.9486 40.3274C25.9486 32.3994 32.3995 25.9485 40.3275 25.9485C48.2564 25.9485 54.7073 32.3994 54.7073 40.3274C54.7073 48.2563 48.2564 54.7072 40.3275 54.7072ZM55.17 28.9219C53.2929 28.9219 51.7667 27.3957 51.7667 25.5197C51.7667 23.6436 53.2929 22.1174 55.17 22.1174C57.0459 22.1174 58.5721 23.6436 58.5721 25.5197C58.5721 27.3959 57.0459 28.9219 55.17 28.9219Z" fill="#076C72"/>
<path fill-rule="evenodd" clip-rule="evenodd" d="M40.3275 32.0256C35.7507 32.0256 32.0237 35.7509 32.0237 40.3276C32.0237 44.9062 35.7507 48.6323 40.3275 48.6323C44.906 48.6323 48.6304 44.9062 48.6304 40.3276C48.6304 35.7509 44.906 32.0256 40.3275 32.0256Z" fill="#076C72"/>
<path fill-rule="evenodd" clip-rule="evenodd" d="M0 0V80.6558H80.6558V0H0ZM68.2437 54.1597C68.2437 61.9268 61.9268 68.2437 54.1599 68.2437H26.4961C18.7299 68.2437 12.4121 61.9268 12.4121 54.1597V26.4961C12.4121 18.7299 18.7299 12.4121 26.4961 12.4121H54.1599C61.9268 12.4121 68.2437 18.7299 68.2437 26.4961V54.1597Z" fill="#076C72"/>
</g>
<defs>
<clipPath id="clip0">
<rect width="80.6558" height="80.6558" fill="white"/>
</clipPath>
</defs>
</svg>
