<svg width="470" height="190" viewBox="0 0 470 190" fill="none" xmlns="http://www.w3.org/2000/svg">
<path d="M78.2188 89.1094C75.0938 91.7969 71.5938 93.8594 67.7188 95.2969C63.8438 96.7344 59.8281 97.4531 55.6719 97.4531C52.4844 97.4531 49.4062 97.0312 46.4375 96.1875C43.5 95.375 40.7344 94.2188 38.1406 92.7188C35.5781 91.1875 33.2344 89.3594 31.1094 87.2344C28.9844 85.1094 27.1562 82.7656 25.625 80.2031C24.125 77.6094 22.9531 74.8438 22.1094 71.9062C21.2969 68.9375 20.8906 65.8594 20.8906 62.6719C20.8906 59.4844 21.2969 56.4062 22.1094 53.4375C22.9531 50.4688 24.125 47.7031 25.625 45.1406C27.1562 42.5469 28.9844 40.1875 31.1094 38.0625C33.2344 35.9375 35.5781 34.125 38.1406 32.625C40.7344 31.0937 43.5 29.9219 46.4375 29.1094C49.4062 28.2656 52.4844 27.8438 55.6719 27.8438C59.8281 27.8438 63.8438 28.5625 67.7188 30C71.5938 31.4062 75.0938 33.4688 78.2188 36.1875L71.0938 47.9062C69.125 45.7812 66.7969 44.1562 64.1094 43.0312C61.4219 41.875 58.6094 41.2969 55.6719 41.2969C52.7031 41.2969 49.9219 41.8594 47.3281 42.9844C44.7344 44.1094 42.4688 45.6406 40.5312 47.5781C38.5938 49.4844 37.0625 51.75 35.9375 54.375C34.8125 56.9688 34.25 59.7344 34.25 62.6719C34.25 65.6094 34.8125 68.375 35.9375 70.9688C37.0625 73.5312 38.5938 75.7812 40.5312 77.7188C42.4688 79.6562 44.7344 81.1875 47.3281 82.3125C49.9219 83.4375 52.7031 84 55.6719 84C58.6094 84 61.4219 83.4375 64.1094 82.3125C66.7969 81.1562 69.125 79.5156 71.0938 77.3906L78.2188 89.1094ZM99.5 42.2344V69.1406H112.953C114.797 69.1406 116.531 68.7969 118.156 68.1094C119.781 67.3906 121.203 66.4219 122.422 65.2031C123.641 63.9844 124.594 62.5625 125.281 60.9375C126 59.2812 126.359 57.5312 126.359 55.6875C126.359 53.8438 126 52.1094 125.281 50.4844C124.594 48.8281 123.641 47.3906 122.422 46.1719C121.203 44.9531 119.781 44 118.156 43.3125C116.531 42.5938 114.797 42.2344 112.953 42.2344H99.5ZM99.5 96H86.0469V28.7812H112.953C115.422 28.7812 117.797 29.1094 120.078 29.7656C122.359 30.3906 124.484 31.2969 126.453 32.4844C128.453 33.6406 130.266 35.0469 131.891 36.7031C133.547 38.3281 134.953 40.1406 136.109 42.1406C137.297 44.1406 138.203 46.2812 138.828 48.5625C139.484 50.8438 139.812 53.2188 139.812 55.6875C139.812 58 139.516 60.25 138.922 62.4375C138.359 64.625 137.531 66.7031 136.438 68.6719C135.375 70.6406 134.062 72.4531 132.5 74.1094C130.938 75.7656 129.188 77.2031 127.25 78.4219L134.703 96H120.406L114.547 82.4531L99.5 82.5469V96ZM214.531 62.6719C214.531 65.8594 214.109 68.9375 213.266 71.9062C212.453 74.8438 211.297 77.6094 209.797 80.2031C208.297 82.7656 206.484 85.1094 204.359 87.2344C202.234 89.3594 199.891 91.1875 197.328 92.7188C194.766 94.2188 192 95.375 189.031 96.1875C186.062 97.0312 182.984 97.4531 179.797 97.4531C176.609 97.4531 173.531 97.0312 170.562 96.1875C167.625 95.375 164.859 94.2188 162.266 92.7188C159.703 91.1875 157.359 89.3594 155.234 87.2344C153.109 85.1094 151.281 82.7656 149.75 80.2031C148.25 77.6094 147.078 74.8438 146.234 71.9062C145.422 68.9375 145.016 65.8594 145.016 62.6719C145.016 59.4844 145.422 56.4062 146.234 53.4375C147.078 50.4688 148.25 47.7031 149.75 45.1406C151.281 42.5781 153.109 40.2344 155.234 38.1094C157.359 35.9844 159.703 34.1719 162.266 32.6719C164.859 31.1719 167.625 30.0156 170.562 29.2031C173.531 28.3594 176.609 27.9375 179.797 27.9375C182.984 27.9375 186.062 28.3594 189.031 29.2031C192 30.0156 194.766 31.1719 197.328 32.6719C199.891 34.1719 202.234 35.9844 204.359 38.1094C206.484 40.2344 208.297 42.5781 209.797 45.1406C211.297 47.7031 212.453 50.4688 213.266 53.4375C214.109 56.4062 214.531 59.4844 214.531 62.6719ZM201.172 62.6719C201.172 59.7344 200.609 56.9688 199.484 54.375C198.359 51.75 196.828 49.4844 194.891 47.5781C192.984 45.6406 190.719 44.1094 188.094 42.9844C185.5 41.8594 182.734 41.2969 179.797 41.2969C176.828 41.2969 174.047 41.8594 171.453 42.9844C168.859 44.1094 166.594 45.6406 164.656 47.5781C162.719 49.4844 161.188 51.75 160.062 54.375C158.938 56.9688 158.375 59.7344 158.375 62.6719C158.375 65.6094 158.938 68.375 160.062 70.9688C161.188 73.5312 162.719 75.7812 164.656 77.7188C166.594 79.6562 168.859 81.1875 171.453 82.3125C174.047 83.4375 176.828 84 179.797 84C182.734 84 185.5 83.4375 188.094 82.3125C190.719 81.1875 192.984 79.6562 194.891 77.7188C196.828 75.7812 198.359 73.5312 199.484 70.9688C200.609 68.375 201.172 65.6094 201.172 62.6719ZM219.453 48.9375C219.453 46.1562 219.984 43.5469 221.047 41.1094C222.109 38.6719 223.547 36.5469 225.359 34.7344C227.203 32.8906 229.344 31.4375 231.781 30.375C234.219 29.3125 236.828 28.7812 239.609 28.7812H270.453V42.2344H239.609C238.672 42.2344 237.797 42.4062 236.984 42.75C236.172 43.0938 235.453 43.5781 234.828 44.2031C234.234 44.7969 233.766 45.5 233.422 46.3125C233.078 47.125 232.906 48 232.906 48.9375C232.906 49.875 233.078 50.7656 233.422 51.6094C233.766 52.4219 234.234 53.1406 234.828 53.7656C235.453 54.3594 236.172 54.8281 236.984 55.1719C237.797 55.5156 238.672 55.6875 239.609 55.6875H253.062C255.844 55.6875 258.453 56.2188 260.891 57.2812C263.359 58.3125 265.5 59.75 267.312 61.5938C269.156 63.4062 270.594 65.5469 271.625 68.0156C272.688 70.4531 273.219 73.0625 273.219 75.8438C273.219 78.625 272.688 81.2344 271.625 83.6719C270.594 86.1094 269.156 88.25 267.312 90.0938C265.5 91.9062 263.359 93.3438 260.891 94.4062C258.453 95.4688 255.844 96 253.062 96H223.203V82.5469H253.062C254 82.5469 254.875 82.375 255.688 82.0312C256.5 81.6875 257.203 81.2188 257.797 80.625C258.422 80 258.906 79.2812 259.25 78.4688C259.594 77.6562 259.766 76.7812 259.766 75.8438C259.766 74.9062 259.594 74.0312 259.25 73.2188C258.906 72.4062 258.422 71.7031 257.797 71.1094C257.203 70.4844 256.5 70 255.688 69.6562C254.875 69.3125 254 69.1406 253.062 69.1406H239.609C236.828 69.1406 234.219 68.6094 231.781 67.5469C229.344 66.4844 227.203 65.0469 225.359 63.2344C223.547 61.3906 222.109 59.25 221.047 56.8125C219.984 54.3438 219.453 51.7188 219.453 48.9375ZM278.141 48.9375C278.141 46.1562 278.672 43.5469 279.734 41.1094C280.797 38.6719 282.234 36.5469 284.047 34.7344C285.891 32.8906 288.031 31.4375 290.469 30.375C292.906 29.3125 295.516 28.7812 298.297 28.7812H329.141V42.2344H298.297C297.359 42.2344 296.484 42.4062 295.672 42.75C294.859 43.0938 294.141 43.5781 293.516 44.2031C292.922 44.7969 292.453 45.5 292.109 46.3125C291.766 47.125 291.594 48 291.594 48.9375C291.594 49.875 291.766 50.7656 292.109 51.6094C292.453 52.4219 292.922 53.1406 293.516 53.7656C294.141 54.3594 294.859 54.8281 295.672 55.1719C296.484 55.5156 297.359 55.6875 298.297 55.6875H311.75C314.531 55.6875 317.141 56.2188 319.578 57.2812C322.047 58.3125 324.188 59.75 326 61.5938C327.844 63.4062 329.281 65.5469 330.312 68.0156C331.375 70.4531 331.906 73.0625 331.906 75.8438C331.906 78.625 331.375 81.2344 330.312 83.6719C329.281 86.1094 327.844 88.25 326 90.0938C324.188 91.9062 322.047 93.3438 319.578 94.4062C317.141 95.4688 314.531 96 311.75 96H281.891V82.5469H311.75C312.688 82.5469 313.562 82.375 314.375 82.0312C315.188 81.6875 315.891 81.2188 316.484 80.625C317.109 80 317.594 79.2812 317.938 78.4688C318.281 77.6562 318.453 76.7812 318.453 75.8438C318.453 74.9062 318.281 74.0312 317.938 73.2188C317.594 72.4062 317.109 71.7031 316.484 71.1094C315.891 70.4844 315.188 70 314.375 69.6562C313.562 69.3125 312.688 69.1406 311.75 69.1406H298.297C295.516 69.1406 292.906 68.6094 290.469 67.5469C288.031 66.4844 285.891 65.0469 284.047 63.2344C282.234 61.3906 280.797 59.25 279.734 56.8125C278.672 54.3438 278.141 51.7188 278.141 48.9375ZM354.219 96H340.766V28.7812H387.828V42.2344H354.219V55.6875H374.375V69.1406H354.219V96ZM408.219 96H394.766V28.7812H408.219V96ZM448.953 96H435.547V42.2344H415.344V28.7812H469.109V42.2344H448.953V96ZM273.594 182H260.141V114.781H273.594V148.391L298.625 114.781H313.906L292.672 143.141L313.906 182H298.625L283.859 154.812L273.594 168.547V182ZM333.594 182H320.141V114.781H333.594V182ZM399.875 182H385.484L359.562 137.75V182H346.109V114.781H360.5L386.422 159.078V114.781H399.875V182ZM465.875 175.203C462.75 177.859 459.266 179.906 455.422 181.344C451.578 182.75 447.578 183.453 443.422 183.453C440.234 183.453 437.156 183.031 434.188 182.188C431.25 181.375 428.5 180.219 425.938 178.719C423.375 177.188 421.031 175.375 418.906 173.281C416.781 171.156 414.969 168.812 413.469 166.25C411.969 163.656 410.797 160.875 409.953 157.906C409.141 154.938 408.734 151.859 408.734 148.672C408.734 145.484 409.141 142.422 409.953 139.484C410.797 136.547 411.969 133.797 413.469 131.234C414.969 128.641 416.781 126.297 418.906 124.203C421.031 122.078 423.375 120.266 425.938 118.766C428.5 117.266 431.25 116.109 434.188 115.297C437.156 114.453 440.234 114.031 443.422 114.031C447.578 114.031 451.578 114.75 455.422 116.188C459.266 117.594 462.75 119.625 465.875 122.281L458.844 134C456.812 131.938 454.469 130.328 451.812 129.172C449.156 127.984 446.359 127.391 443.422 127.391C440.484 127.391 437.719 127.953 435.125 129.078C432.562 130.203 430.312 131.734 428.375 133.672C426.438 135.578 424.906 137.828 423.781 140.422C422.656 142.984 422.094 145.734 422.094 148.672C422.094 151.641 422.656 154.422 423.781 157.016C424.906 159.609 426.438 161.875 428.375 163.812C430.312 165.75 432.562 167.281 435.125 168.406C437.719 169.531 440.484 170.094 443.422 170.094C445.109 170.094 446.75 169.891 448.344 169.484C449.938 169.078 451.453 168.516 452.891 167.797V148.672H465.875V175.203Z" fill="#07787F" fill-opacity="0.38"/>
<path d="M60.2188 71.1094C57.0938 73.7969 53.5938 75.8594 49.7188 77.2969C45.8438 78.7344 41.8281 79.4531 37.6719 79.4531C34.4844 79.4531 31.4062 79.0312 28.4375 78.1875C25.5 77.375 22.7344 76.2188 20.1406 74.7188C17.5781 73.1875 15.2344 71.3594 13.1094 69.2344C10.9844 67.1094 9.15625 64.7656 7.625 62.2031C6.125 59.6094 4.95312 56.8438 4.10938 53.9062C3.29688 50.9375 2.89062 47.8594 2.89062 44.6719C2.89062 41.4844 3.29688 38.4062 4.10938 35.4375C4.95312 32.4688 6.125 29.7031 7.625 27.1406C9.15625 24.5469 10.9844 22.1875 13.1094 20.0625C15.2344 17.9375 17.5781 16.125 20.1406 14.625C22.7344 13.0937 25.5 11.9219 28.4375 11.1094C31.4062 10.2656 34.4844 9.84375 37.6719 9.84375C41.8281 9.84375 45.8438 10.5625 49.7188 12C53.5938 13.4062 57.0938 15.4688 60.2188 18.1875L53.0938 29.9062C51.125 27.7813 48.7969 26.1562 46.1094 25.0312C43.4219 23.875 40.6094 23.2969 37.6719 23.2969C34.7031 23.2969 31.9219 23.8594 29.3281 24.9844C26.7344 26.1094 24.4688 27.6406 22.5312 29.5781C20.5938 31.4844 19.0625 33.75 17.9375 36.375C16.8125 38.9688 16.25 41.7344 16.25 44.6719C16.25 47.6094 16.8125 50.375 17.9375 52.9688C19.0625 55.5312 20.5938 57.7812 22.5312 59.7188C24.4688 61.6562 26.7344 63.1875 29.3281 64.3125C31.9219 65.4375 34.7031 66 37.6719 66C40.6094 66 43.4219 65.4375 46.1094 64.3125C48.7969 63.1562 51.125 61.5156 53.0938 59.3906L60.2188 71.1094ZM81.5 24.2344V51.1406H94.9531C96.7969 51.1406 98.5312 50.7969 100.156 50.1094C101.781 49.3906 103.203 48.4219 104.422 47.2031C105.641 45.9844 106.594 44.5625 107.281 42.9375C108 41.2812 108.359 39.5312 108.359 37.6875C108.359 35.8438 108 34.1094 107.281 32.4844C106.594 30.8281 105.641 29.3906 104.422 28.1719C103.203 26.9531 101.781 26 100.156 25.3125C98.5312 24.5938 96.7969 24.2344 94.9531 24.2344H81.5ZM81.5 78H68.0469V10.7812H94.9531C97.4219 10.7812 99.7969 11.1094 102.078 11.7656C104.359 12.3906 106.484 13.2969 108.453 14.4844C110.453 15.6406 112.266 17.0469 113.891 18.7031C115.547 20.3281 116.953 22.1406 118.109 24.1406C119.297 26.1406 120.203 28.2812 120.828 30.5625C121.484 32.8438 121.812 35.2188 121.812 37.6875C121.812 40 121.516 42.25 120.922 44.4375C120.359 46.625 119.531 48.7031 118.438 50.6719C117.375 52.6406 116.062 54.4531 114.5 56.1094C112.938 57.7656 111.188 59.2031 109.25 60.4219L116.703 78H102.406L96.5469 64.4531L81.5 64.5469V78ZM196.531 44.6719C196.531 47.8594 196.109 50.9375 195.266 53.9062C194.453 56.8438 193.297 59.6094 191.797 62.2031C190.297 64.7656 188.484 67.1094 186.359 69.2344C184.234 71.3594 181.891 73.1875 179.328 74.7188C176.766 76.2188 174 77.375 171.031 78.1875C168.062 79.0312 164.984 79.4531 161.797 79.4531C158.609 79.4531 155.531 79.0312 152.562 78.1875C149.625 77.375 146.859 76.2188 144.266 74.7188C141.703 73.1875 139.359 71.3594 137.234 69.2344C135.109 67.1094 133.281 64.7656 131.75 62.2031C130.25 59.6094 129.078 56.8438 128.234 53.9062C127.422 50.9375 127.016 47.8594 127.016 44.6719C127.016 41.4844 127.422 38.4062 128.234 35.4375C129.078 32.4688 130.25 29.7031 131.75 27.1406C133.281 24.5781 135.109 22.2344 137.234 20.1094C139.359 17.9844 141.703 16.1719 144.266 14.6719C146.859 13.1719 149.625 12.0156 152.562 11.2031C155.531 10.3594 158.609 9.9375 161.797 9.9375C164.984 9.9375 168.062 10.3594 171.031 11.2031C174 12.0156 176.766 13.1719 179.328 14.6719C181.891 16.1719 184.234 17.9844 186.359 20.1094C188.484 22.2344 190.297 24.5781 191.797 27.1406C193.297 29.7031 194.453 32.4688 195.266 35.4375C196.109 38.4062 196.531 41.4844 196.531 44.6719ZM183.172 44.6719C183.172 41.7344 182.609 38.9688 181.484 36.375C180.359 33.75 178.828 31.4844 176.891 29.5781C174.984 27.6406 172.719 26.1094 170.094 24.9844C167.5 23.8594 164.734 23.2969 161.797 23.2969C158.828 23.2969 156.047 23.8594 153.453 24.9844C150.859 26.1094 148.594 27.6406 146.656 29.5781C144.719 31.4844 143.188 33.75 142.062 36.375C140.938 38.9688 140.375 41.7344 140.375 44.6719C140.375 47.6094 140.938 50.375 142.062 52.9688C143.188 55.5312 144.719 57.7812 146.656 59.7188C148.594 61.6562 150.859 63.1875 153.453 64.3125C156.047 65.4375 158.828 66 161.797 66C164.734 66 167.5 65.4375 170.094 64.3125C172.719 63.1875 174.984 61.6562 176.891 59.7188C178.828 57.7812 180.359 55.5312 181.484 52.9688C182.609 50.375 183.172 47.6094 183.172 44.6719ZM201.453 30.9375C201.453 28.1563 201.984 25.5469 203.047 23.1094C204.109 20.6719 205.547 18.5469 207.359 16.7344C209.203 14.8906 211.344 13.4375 213.781 12.375C216.219 11.3125 218.828 10.7812 221.609 10.7812H252.453V24.2344H221.609C220.672 24.2344 219.797 24.4063 218.984 24.75C218.172 25.0937 217.453 25.5781 216.828 26.2031C216.234 26.7969 215.766 27.5 215.422 28.3125C215.078 29.125 214.906 30 214.906 30.9375C214.906 31.875 215.078 32.7656 215.422 33.6094C215.766 34.4219 216.234 35.1406 216.828 35.7656C217.453 36.3594 218.172 36.8281 218.984 37.1719C219.797 37.5156 220.672 37.6875 221.609 37.6875H235.062C237.844 37.6875 240.453 38.2188 242.891 39.2812C245.359 40.3125 247.5 41.75 249.312 43.5938C251.156 45.4062 252.594 47.5469 253.625 50.0156C254.688 52.4531 255.219 55.0625 255.219 57.8438C255.219 60.625 254.688 63.2344 253.625 65.6719C252.594 68.1094 251.156 70.25 249.312 72.0938C247.5 73.9062 245.359 75.3438 242.891 76.4062C240.453 77.4688 237.844 78 235.062 78H205.203V64.5469H235.062C236 64.5469 236.875 64.375 237.688 64.0312C238.5 63.6875 239.203 63.2188 239.797 62.625C240.422 62 240.906 61.2812 241.25 60.4688C241.594 59.6562 241.766 58.7812 241.766 57.8438C241.766 56.9062 241.594 56.0312 241.25 55.2188C240.906 54.4062 240.422 53.7031 239.797 53.1094C239.203 52.4844 238.5 52 237.688 51.6562C236.875 51.3125 236 51.1406 235.062 51.1406H221.609C218.828 51.1406 216.219 50.6094 213.781 49.5469C211.344 48.4844 209.203 47.0469 207.359 45.2344C205.547 43.3906 204.109 41.25 203.047 38.8125C201.984 36.3438 201.453 33.7188 201.453 30.9375ZM260.141 30.9375C260.141 28.1563 260.672 25.5469 261.734 23.1094C262.797 20.6719 264.234 18.5469 266.047 16.7344C267.891 14.8906 270.031 13.4375 272.469 12.375C274.906 11.3125 277.516 10.7812 280.297 10.7812H311.141V24.2344H280.297C279.359 24.2344 278.484 24.4063 277.672 24.75C276.859 25.0937 276.141 25.5781 275.516 26.2031C274.922 26.7969 274.453 27.5 274.109 28.3125C273.766 29.125 273.594 30 273.594 30.9375C273.594 31.875 273.766 32.7656 274.109 33.6094C274.453 34.4219 274.922 35.1406 275.516 35.7656C276.141 36.3594 276.859 36.8281 277.672 37.1719C278.484 37.5156 279.359 37.6875 280.297 37.6875H293.75C296.531 37.6875 299.141 38.2188 301.578 39.2812C304.047 40.3125 306.188 41.75 308 43.5938C309.844 45.4062 311.281 47.5469 312.312 50.0156C313.375 52.4531 313.906 55.0625 313.906 57.8438C313.906 60.625 313.375 63.2344 312.312 65.6719C311.281 68.1094 309.844 70.25 308 72.0938C306.188 73.9062 304.047 75.3438 301.578 76.4062C299.141 77.4688 296.531 78 293.75 78H263.891V64.5469H293.75C294.688 64.5469 295.562 64.375 296.375 64.0312C297.188 63.6875 297.891 63.2188 298.484 62.625C299.109 62 299.594 61.2812 299.938 60.4688C300.281 59.6562 300.453 58.7812 300.453 57.8438C300.453 56.9062 300.281 56.0312 299.938 55.2188C299.594 54.4062 299.109 53.7031 298.484 53.1094C297.891 52.4844 297.188 52 296.375 51.6562C295.562 51.3125 294.688 51.1406 293.75 51.1406H280.297C277.516 51.1406 274.906 50.6094 272.469 49.5469C270.031 48.4844 267.891 47.0469 266.047 45.2344C264.234 43.3906 262.797 41.25 261.734 38.8125C260.672 36.3438 260.141 33.7188 260.141 30.9375ZM336.219 78H322.766V10.7812H369.828V24.2344H336.219V37.6875H356.375V51.1406H336.219V78ZM390.219 78H376.766V10.7812H390.219V78ZM430.953 78H417.547V24.2344H397.344V10.7812H451.109V24.2344H430.953V78ZM255.594 164H242.141V96.7812H255.594V130.391L280.625 96.7812H295.906L274.672 125.141L295.906 164H280.625L265.859 136.812L255.594 150.547V164ZM315.594 164H302.141V96.7812H315.594V164ZM381.875 164H367.484L341.562 119.75V164H328.109V96.7812H342.5L368.422 141.078V96.7812H381.875V164ZM447.875 157.203C444.75 159.859 441.266 161.906 437.422 163.344C433.578 164.75 429.578 165.453 425.422 165.453C422.234 165.453 419.156 165.031 416.188 164.188C413.25 163.375 410.5 162.219 407.938 160.719C405.375 159.188 403.031 157.375 400.906 155.281C398.781 153.156 396.969 150.812 395.469 148.25C393.969 145.656 392.797 142.875 391.953 139.906C391.141 136.938 390.734 133.859 390.734 130.672C390.734 127.484 391.141 124.422 391.953 121.484C392.797 118.547 393.969 115.797 395.469 113.234C396.969 110.641 398.781 108.297 400.906 106.203C403.031 104.078 405.375 102.266 407.938 100.766C410.5 99.2656 413.25 98.1094 416.188 97.2969C419.156 96.4531 422.234 96.0312 425.422 96.0312C429.578 96.0312 433.578 96.75 437.422 98.1875C441.266 99.5938 444.75 101.625 447.875 104.281L440.844 116C438.812 113.938 436.469 112.328 433.812 111.172C431.156 109.984 428.359 109.391 425.422 109.391C422.484 109.391 419.719 109.953 417.125 111.078C414.562 112.203 412.312 113.734 410.375 115.672C408.438 117.578 406.906 119.828 405.781 122.422C404.656 124.984 404.094 127.734 404.094 130.672C404.094 133.641 404.656 136.422 405.781 139.016C406.906 141.609 408.438 143.875 410.375 145.812C412.312 147.75 414.562 149.281 417.125 150.406C419.719 151.531 422.484 152.094 425.422 152.094C427.109 152.094 428.75 151.891 430.344 151.484C431.938 151.078 433.453 150.516 434.891 149.797V130.672H447.875V157.203Z" fill="white"/>
<path d="M197.321 100.002C197.321 102.209 199.116 104.005 201.323 104.005C202.475 104.005 203.514 103.515 204.245 102.733L209.28 110.085L202.268 112.423C201.623 111.075 200.246 110.141 198.655 110.141C196.448 110.141 194.653 111.937 194.653 114.144C194.653 116.351 196.448 118.146 198.655 118.146C199.796 118.146 200.826 117.666 201.555 116.897L206.412 124.184L199.455 128.159C198.763 126.96 197.468 126.151 195.987 126.151C193.78 126.151 191.984 127.946 191.984 130.153C191.984 132.36 193.78 134.155 195.987 134.155C197.468 134.155 198.763 133.346 199.455 132.147L206.412 136.122L201.555 143.409C200.825 142.64 199.796 142.16 198.655 142.16C196.448 142.16 194.653 143.955 194.653 146.162C194.653 148.369 196.448 150.164 198.655 150.164C200.246 150.164 201.623 149.231 202.268 147.883L209.28 150.221L204.245 157.572C203.514 156.791 202.475 156.301 201.323 156.301C199.116 156.301 197.321 158.097 197.321 160.304C197.321 162.51 199.116 164.306 201.323 164.306C203.127 164.306 204.656 163.106 205.154 161.462L214.44 159.915C215.633 160.981 217.697 161.638 220 161.638C223.667 161.638 226.464 160.038 226.659 157.878L236.229 156.283C236.872 156.176 237.344 155.619 237.344 154.967L237.344 136.156C237.344 135.42 236.746 134.822 236.01 134.822C235.273 134.822 234.676 135.42 234.676 136.156L234.676 153.837L232.007 154.282L232.007 106.024L234.676 106.469L234.676 124.149C234.676 124.886 235.273 125.484 236.01 125.484C236.746 125.484 237.344 124.886 237.344 124.149L237.344 105.339C237.344 104.686 236.872 104.13 236.229 104.023L226.659 102.428C226.464 100.268 223.667 98.6682 220 98.6682C217.697 98.6682 215.633 99.325 214.44 100.391L205.154 98.8435C204.656 97.2 203.127 96 201.323 96C199.116 96 197.321 97.7954 197.321 100.002V100.002ZM197.321 114.144C197.321 113.408 197.919 112.81 198.655 112.81C199.39 112.81 199.989 113.408 199.989 114.144C199.989 114.879 199.39 115.478 198.655 115.478C197.919 115.478 197.321 114.879 197.321 114.144ZM203.402 114.857L210.849 112.375L215.414 119.04L208.735 122.857L203.402 114.857ZM194.653 130.153C194.653 129.417 195.251 128.819 195.987 128.819C196.722 128.819 197.321 129.417 197.321 130.153C197.321 130.889 196.722 131.487 195.987 131.487C195.251 131.487 194.653 130.889 194.653 130.153ZM197.321 146.162C197.321 145.427 197.919 144.828 198.655 144.828C199.39 144.828 199.989 145.427 199.989 146.162C199.989 146.898 199.39 147.496 198.655 147.496C197.919 147.496 197.321 146.898 197.321 146.162ZM203.402 145.449L208.735 137.449L215.414 141.266L210.849 147.931L203.402 145.449ZM199.989 160.304C199.989 159.568 200.587 158.969 201.323 158.969C202.059 158.969 202.657 159.568 202.657 160.304C202.657 161.039 202.059 161.638 201.323 161.638C200.587 161.638 199.989 161.039 199.989 160.304ZM220 158.969C217.842 158.969 216.39 158.252 216.047 157.741C215.778 157.332 217.491 156.301 220 156.301C222.161 156.301 223.614 157.021 223.953 157.528C224.267 158.002 222.314 158.969 220 158.969ZM229.339 154.726L225.561 155.356C224.368 154.29 222.304 153.633 220 153.633C216.334 153.633 213.537 155.233 213.342 157.393L206.862 158.473L218.433 141.58C218.873 140.937 218.671 140.054 217.994 139.668L201.344 130.153L217.994 120.639C218.673 120.25 218.872 119.367 218.433 118.726L206.863 101.833L213.342 102.913C213.537 105.073 216.334 106.673 220 106.673C222.303 106.673 224.365 106.017 225.56 104.95L229.339 105.58L229.339 154.726ZM224.003 102.67C224.003 103.046 222.453 104.005 220 104.005C217.59 104.005 215.998 103.062 215.998 102.67C215.998 102.312 217.508 101.336 220 101.336C222.411 101.336 224.003 102.279 224.003 102.67ZM202.657 100.002C202.657 100.738 202.059 101.336 201.323 101.336C200.587 101.336 199.989 100.738 199.989 100.002C199.989 99.2667 200.587 98.6682 201.323 98.6682C202.059 98.6682 202.657 99.2667 202.657 100.002Z" fill="white"/>
<path d="M213.33 130.153C213.33 132.435 216.198 134.155 220 134.155C223.803 134.155 226.671 132.435 226.671 130.153C226.671 127.871 223.803 126.151 220 126.151C216.198 126.151 213.33 127.871 213.33 130.153ZM224.003 130.153C224.003 130.557 222.38 131.487 220 131.487C217.59 131.487 215.998 130.544 215.998 130.153C215.998 129.749 217.621 128.819 220 128.819C222.411 128.819 224.003 129.762 224.003 130.153Z" fill="white"/>
<path d="M237.344 130.153C237.344 129.416 236.746 128.819 236.01 128.819C235.273 128.819 234.676 129.416 234.676 130.153C234.676 130.89 235.273 131.487 236.01 131.487C236.746 131.487 237.344 130.89 237.344 130.153Z" fill="white"/>
</svg>
