<svg width="51" height="56" viewBox="0 0 51 56" fill="none" xmlns="http://www.w3.org/2000/svg">
<path d="M38.0278 23.863V13.4308C38.0278 13.1322 37.8899 12.8563 37.6947 12.6381L25.9988 0.356221C25.7805 0.126591 25.4701 0 25.1601 0H6.61645C3.19303 0 0.458496 2.79173 0.458496 6.21558V41.2804C0.458496 44.7043 3.19303 47.4502 6.61645 47.4502H21.2539C24.0225 52.0457 29.055 55.1247 34.7878 55.1247C43.4965 55.1247 50.6083 48.0474 50.6083 39.3273C50.6201 31.71 45.151 25.3451 38.0278 23.863ZM26.3091 4.03283L34.1561 12.2932H29.0664C27.5498 12.2932 26.3091 11.0412 26.3091 9.5246V4.03283ZM6.61645 45.1522C4.46819 45.1522 2.75648 43.4287 2.75648 41.2804V6.21558C2.75648 4.05554 4.46819 2.29798 6.61645 2.29798H24.0111V9.5246C24.0111 12.3163 26.2746 14.5912 29.0664 14.5912H35.7299V23.564C35.3854 23.5527 35.1095 23.5182 34.8109 23.5182C30.8012 23.5182 27.1133 25.0579 24.3329 27.4707H9.74169C9.10958 27.4707 8.5927 27.9875 8.5927 28.6192C8.5927 29.2513 9.10958 29.7682 9.74169 29.7682H22.196C21.3801 30.9172 20.7021 32.0662 20.1739 33.33H9.74169C9.10958 33.33 8.5927 33.8469 8.5927 34.479C8.5927 35.1107 9.10958 35.628 9.74169 35.628H19.427C19.1397 36.777 18.9904 38.0522 18.9904 39.3273C18.9904 41.3953 19.3925 43.4405 20.1163 45.164H6.61645V45.1522ZM34.7996 52.8385C27.3547 52.8385 21.2997 46.7836 21.2997 39.3387C21.2997 31.8938 27.3429 25.8389 34.7996 25.8389C42.2558 25.8389 48.299 31.8938 48.299 39.3387C48.299 46.7836 42.2445 52.8385 34.7996 52.8385Z" fill="white"/>
<path d="M9.74177 24.0124H21.3801C22.0123 24.0124 22.5291 23.4951 22.5291 22.8634C22.5291 22.2312 22.0123 21.7144 21.3801 21.7144H9.74177C9.10965 21.7144 8.59277 22.2312 8.59277 22.8634C8.59277 23.4951 9.10965 24.0124 9.74177 24.0124Z" fill="white"/>
<path d="M34.4203 32.25C34.5124 32.2727 34.6041 32.2845 34.6962 32.2845C34.811 32.2845 34.9144 32.2727 35.0179 32.2382C36.5345 32.3648 37.7179 33.6286 37.7179 35.1683C37.7179 35.8 38.2348 36.3169 38.8665 36.3169C39.4986 36.3169 40.0155 35.8 40.0155 35.1683C40.0155 32.6407 38.2235 30.5265 35.8452 30.0323V29.2972C35.8452 28.6651 35.3279 28.1482 34.6962 28.1482C34.064 28.1482 33.5472 28.6651 33.5472 29.2972V30.0786C31.2492 30.63 29.5375 32.7097 29.5375 35.1683C29.5375 38.0635 31.8927 40.4073 34.7765 40.4073C36.3965 40.4073 37.7179 41.7283 37.7179 43.3483C37.7179 44.9684 36.4079 46.3012 34.7765 46.3012C33.1565 46.3012 31.8355 44.9797 31.8355 43.3597C31.8355 42.728 31.3182 42.2107 30.6865 42.2107C30.0544 42.2107 29.5375 42.728 29.5375 43.3597C29.5375 45.8301 31.2492 47.8981 33.5472 48.4494V49.6329C33.5472 50.265 34.064 50.7819 34.6962 50.7819C35.3279 50.7819 35.8452 50.265 35.8452 49.6329V48.4839C38.2235 47.9897 40.0155 45.876 40.0155 43.3483C40.0155 40.4532 37.6603 38.1093 34.7765 38.1093C33.1565 38.1093 31.8355 36.7879 31.8355 35.1683C31.8355 33.6744 32.9613 32.4224 34.4203 32.25Z" fill="white"/>
</svg>
